<svg xmlns="http://www.w3.org/2000/svg" fill="#ececec" stroke="#000" stroke-linecap="round" stroke-linejoin="round"
     stroke-width=".2" version="1.2" viewBox="0 0 2000 857">
    <path d="m1383 262 2 1-3 1-3 1-6 1-5 1-2 3 1 3 2 3-2 3 1 2-1 3-5-1 3 5-3 1-2 4 1 4-2 2-2-1-4 1v2h-4l-2 4 1 5-7 3-4-1-1 1h-3l-6 1-9-4 4-6-1-4-5-1-1-4-3-5 2-3-2-1v-5l1-8 6 2 3-1 1-2 4-1 2-2v-5l4-2 1-2 3 2h4l5 1 1 1 4-2 2 1 1-3h4l-1-3 2-2 3 1v2h2l1 6 3 2 1-1 2-1 3-3 4 1h5z"
          name="Afghanistan"/>
    <path d="m1121 572 1 2-1 3 1 3-1 3 1 2h-12l-1 20 4 5 3 4-10 3-14-1-3-3h-23l-1 1-3-3h-4l-3 1-3 1v-10l2-6 1-2 2-6 1-3 3-4 2-3 1-5v-3l-2-3-2-3-1-4v-2l2-2-1-6-2-5-2-4v-1l2-1h21l1 4 2 4 1 2 2 4 4-1 2-1 3 1 1-1 1-4h4v-2h3l-1 3h7v4l1 2v8l2 2-1 8 2-1 2 1 4-1h2ZM1055 539l-1-5 2-3 2-1 2 3-2 1-1 2v2l-2 1Z"
          class="Angola"/>
    <path d="M1088 228v1h2l1 1 1 1 1 2-1 2 1 3 3 2v1l-2 1v2l-2 3h-1v-1l-3-3-1-3v-7l-1-2 2-3z" name="Albania"/>
    <path d="m1296 337 2 5h-3v4l1 1-3 1 1 3-2 2v3l-1 1-17-3-2-6-1-2h1l1 2 4-1h8l3-4 4-4 3-4 1 2z"
          name="United Arab Emirates"/>
    <path d="M669 852h-8l-6-14 3 3 5 4 7 4 8 2-1 3h-5l-3-2ZM639 645l11 10 5 1 7 5 6 2 1 3-4 10 5 2 7 1 4-1 4-5 1-6 2-1 3 4 1 5-4 3-4 3-5 6-6 9-1 5v7l1 6-1 1 1 5v3l8 5v5l4 3v3l-3 8-7 3-10 2-6-1 2 4v5l2 3-3 2-5 1-5-2-2 1 3 7 4 2 2-2 2 3-4 2-3 4 1 6v4h-4l-3 3v5l6 4 5 1 1 6-5 4-1 7-3 2-1 3 4 7 5 3h-2l-5-1-12-1-4-4-2-4h-3l-2-2-4-7 3-2v-4l-2-3 1-6-1-8-2-4 2-1-1-2-3-2 1-2-3-3-4-7 2-1-4-8-1-7v-5l3-3-4-6-1-6 3-4-2-5 2-7-1-5-2-2-5-11 2-6-1-7v-5l3-6 3-4-2-3 1-2-1-11 5-3 1-7-1-1 4-6 8 2 4 4 1-5h7l1 2Z"
          class="Argentina"/>
    <path d="M1231 253h-2l-3-4h0-2l-2-2h-1l-3-2-4-2v-3l-1-2 7-1 1 2 2 1v2l3 2-1 2 2 1 3 1 1 5z" name="Armenia"/>
    <path d="m1743 764 4 2 3-1 5-1h3l-5 8-3 2-4 5-1-2-6 5-1-1h-3v-5l2-4 1-6 2-3 3 1ZM1794 590l1 5 4-2 1 3 2 2-1 3 1 5v4h1v6l-1 3 1 5 5 3 4 3 3 3-1 1 2 4 1 7 2-1 2 3 1-1v7l2 3 2 3 3 5v5l-1 4-2 4 1 5-2 6-3 3-3 6-2 3-3 5-5 6-5 3-5 5-3 3-5 6-3 3-4 5-3 4-1 2-4 2-6 1-7 2-4 3-4 2-3-2-3-2 3-3-4 1-7 5-3-2-3-1h-3l-4-2-1-4 2-5v-3l-1-3h-5l3-4 1-4-5 4-5 1 4-3 3-4 3-3 2-5-7 6-4 2-4 5-3-3 1-3-1-5-2-2 2-2-6-4h-3l-4-3-10 1-8 2-7 2h-5l-7 3-5 1-3 4-3 2-4 1h-4l-4-1-4 1h-4l-5 3h-1l-4 2-3 2h-7l-4-4-3-2 2-3 3-1 1-2 1-2 2-4 1-4-1-7v-3l2-4-1-4v-2l-2-3 1-5-2-5v-2l2 2-1-6 3 2 1 3v-4l-1-5v-2l-1-2 1-3 2-2 1-3v-4l3-4v4l3-4 5-2 3-3 5-2 2-1 2 1 4-2 4-1 1-1 2-1h3l6-2 3-3 2-3 4-3 1-3 1-3 5-6 1 6 3-2-2-3 2-3 3 2 1-5 4-3 1-3 3-1 1-2 2 1v-2l3-1h3l3 3 3 3h4l3 1-1-4 4-5 3-1-1-2 3-4 4-2 2 1 5-1v-4l-3-2 3-1 3 2 3 3 4 1h2l3 2 4-2h2l1-1 3 3-2 4-3 2h-2l1 3-3 3-2 3v2l4 4 4 2 2 2 4 4h1l3 1v2l5 3 4-3 2-3 2-3 1-3 3-6v-8l2-5 1-1-1-2 2-4 2-3v-2l2-3 2 4-1 4h2v3l1 3v6Z"
          class="Australia"/>
    <path d="m1071 191-1 1 1 2v2h-3l1 2-1 4-1 1h-5l-2 1h-4l-7-2-2-2-5 1v1h-3l-3-1-2-1 1-1-1-1 2-1 2 2 1-2 4 1 4-2 2 1 2 1 1-1-1-4 1-1 2-3 4 2 2-2 2-1 4 2h2l3 1z"
          name="Austria"/>
    <path d="m1229 253-4-1-3-3-1-2h1l2 2h2v1l3 3ZM1235 236l3-2 3 3 4 5h2l2 2h-4v7l-2 2 1 3h-1l-4-3 1-3-2-2h-2l-5 5-1-4-3-1-2-2 1-2-3-2v-2l-2-1-1-2 1-1 4 2h4l-4-4 2-1 1 1 4 3 3 1v-2Z"
          class="Azerbaijan"/>
    <path d="M1155 530h-1 0l-2-6h0v-1l-1-3 3 1 2-4h3v3l2 1v2l-2 2-2 3-2 2z" name="Burundi"/>
    <path d="m1017 177-1 4h-1l-1 4-4-3-2 1-4-3-2-3h-3v-2l4-1h3l5-1 3 3 3 1z" name="Belgium"/>
    <path d="M1007 427v2l1 4-1 3v1l-3 4-1 2-1 4v15h-5l-2-4 1-15-1-1-1-3-2-2-1-2v-4h2l1-3 3-1 1-2 2-2h2l5 4z"
          name="Benin"/>
    <path d="m989 406-1 3 1 3 3 4v3l7 2v4l-2 2-3 1-1 2-2 1h-7l-2 1-2-1h-10v9l-4-2h-2l-2 2-3-1-1-2-2-2-1-4 2-2v-2l4-6 1-4 2-2 2 1 3-1 1-2 4-3 1-2 5-2 3-1 2 1h3z"
          name="Burkina Faso"/>
    <path d="M1501 360v5l-2-1 1 5-2-3-1-3-1-4-3-3-5-1 1 3-1 4-3-2-1 1h-1l-3-1-1-5-3-5 1-4-4-2 1-2 3-2-5-4 1-4 5 3h3l1 5 6 1 5-1 3 1-2 6h-2l-1 4 3 3 1-4h1l5 10z"
          name="Bangladesh"/>
    <path d="m1133 222-3 2-1 5 2 3-5-1-4 2v4h-5l-4-2-4 2h-4v-5l-3-2 1-1h-1l1-2 1-2-2-3-1-2 1-2 2 3 2-1 4 1 7 1 3-2 5-1 5 2 3 1z"
          name="Bulgaria"/>
    <path d="M1083 214h2l-1 3 3 3-1 2-1 1h-1l-2 2v3l-5-2-2-3-2-1-2-3-2-1-2-3v-3l2 1 1-1h3l4 1h4l2 1z"
          name="Bosnia and Herzegovina"/>
    <path d="m1142 163-4-1-1 1 1 2 2 4h-4l-1 2v3l-2-1-4 1-2-2-1 1-2-1h-4l-6-1-5-1h-4l-2 2h-2l-1-2-2-3 3-2v-2l-2-2-1-3h5l5-2v-4l4-2-1-2 3-1 4-3 6 2 1 1h2l5 1 1 3-1 1 4 4 2 2v1l3 1 2 1-1 2z"
          name="Belarus"/>
    <path d="M488 400h-2l1-7 1-5v-1l1-1 1 1 2-4h1v1h1v2l-1 3v1l-1 2h0v4l-2 1-1 1-1 2z" name="Belize"/>
    <path d="m663 631-1-2-5-3h-5l-10 2-2 5v4l-1 8-1-2h-7l-1 5-4-4-8-2-4 6-4 1-3-9-3-7 1-7-3-2-2-5-3-4 3-7-3-6 1-2-1-2 2-3v-10l1-3-6-10 4 1 3-1 1-1 5-3 3-2 7-2v5l1 3v4l6 6 7 1 2 2 4 2 2 1h4l3 2 1 4 1 2v3h-2l3 7h11l-1 4 1 3 3 1 2 4v6l-2 2 1 4-2 1z"
          name="Bolivia"/>
    <path d="M666 490h3v-4h5l3 1 3 1 2-1h1l1 2 2-1 3-2 1-5 4-6h2l1 3 3 12 3 1v4l-4 5 2 2 10 1v7l4-4 7 2 10 4 3 4-1 3 6-2 11 4 9-1 8 6 8 7 4 2h5l2 2 2 8 1 4-2 11-3 4-7 9-4 7-4 6h-1l-2 4 1 12-1 10v5l-2 2v9l-5 8-1 7-4 2-1 4h-6l-9 3-3 3-6 2-7 5-4 6v5l1 3v7l-1 3-3 4-5 11-4 5-3 3-1 6-3 4-2-4 1-3-3-4-5-4-6-4h-2l-7-5-3 1 6-9 5-6 4-3 4-3-1-5-3-4-2 1v-4l1-3-1-4-2-1-2 1h-2l-1-3-1-6-1-2-4-1-2 1-6-1v-9l-2-4 1-1-1-4 2-2v-5l-1-4-4-2v-6l-11-1-2-7h1v-3l-1-2-1-4-3-2h-4l-2-1-4-2-2-2-7-1-6-6v-4l-1-3 1-4-8 1-3 2-4 3-2 2h-2l-5-1-3 1h-2l-1-10-4 4-5-1-2-3h-4l1-3-3-4-3-6 2-1-1-3 4-2-1-3 1-2 1-3 6-5 5-1v-1h6l2-17v-3l-1-4-3-2v-5l4-1 1 1v-2l-3-1v-4h11l2-2 1 2 1 4 1-1 3 3h5l1-2 4-2 2-1 1-2 4-2v-2h-5l-1-4 1-5-3-1 1-1 4 1 5 2 2-2 4-1 6-2 2-3v-2h3l1 2-1 3h2l1 3-1 3-1 5 1 3v3l4 3 3 1v-2h2l3-1 1-2 4 1h1z"
          name="Brazil"/>
    <path d="m1633 473 2-3 5-3v7h-3l-1 2-3-3z" name="Brunei Darussalam"/>
    <path d="m1489 324 2 2 1 4h-5l-4-1-4 1-5-2v-1l2-5 3-2 4 2h3l3 1z" name="Bhutan"/>
    <path d="m1128 616 1 5 2 1 1 4 6 7h3l-1 3 2 4 4 1 4 3-8 4-6 5-2 5-1 2h-3l-2 4v2l-4 1h-4l-3-2-2-1-3 2-1 3-3 2-3 2-4 1-1-2 1-4-3-6-2-1 1-19h5l1-23h4l9-2 2 2 4-2h1l4-2 1 1z"
          name="Botswana"/>
    <path d="m1121 447 4 2 3 3v2l4 3 3 3 1 4 4 2 1 2-1 1h-4l-4-1-2 1-1 1h-2l-2-1-7 3h-3l-2 4-4-1-4-1-4-2-4-2-3 2-3 3v4h-4l-4-1-3 3-3 6v-2l-1-2-2-3-2-3-1-2-3-4 1-1-1-3 1-5 1-1 3-7h4l1-2h1l2 2 7-3 2-2 3-3v-2h7l5-3 4-7 3-3 3-1 1 3 3 4v7l2 2h0z"
          name="Central African Republic"/>
    <path d="m666 204 3 1 5-1-3 3h-2l-6-2v-2l2-2 1 3ZM680 188h-2l-6-2-3-3 2-1 5 2 5 3-1 1ZM372 191l-3 1-6-3v-2l-3-2v-2l-4-1 1-3 1-2 4 2 3 1h4v5l4 3-1 3ZM712 178l-5 5 3-2 3 2-2 2 4 1 3-1 4 2-3 4 4-1v7l-4 6h-2l-3-1 3-5-2-1-7 6-3-1 5-3-5-1h-15v-2l4-2-2-2 5-3 9-10 4-4 5-2h2l-2 2-3 4ZM352 156l1 1h5l-7 7v5h-2v-6l-1-2 2-3 2-2ZM635 109l-4 3-1-1v-2l3-1h1l1 1ZM625 106l-7 3h-3v-2l5-2h6l-1 1ZM622 89l-1 2h3l1 1 4 2 4 2-2 2h4l2 2-5 2-6-2-1-2-6 3-8 3v-4l-6 1 6-3 3-4 5-5h3ZM667 81h-5l1-3 4-3 4-1 2 2-1 2-1 1-4 2ZM593 70l-5 2-4-2-4 1-3-3 5-1 5-3 3 2 1 1 1 1 1 2Z"
          class="Canada"/>
    <path d="m646 213-3-4 3-9-1-1-4 1-1-2-6 5-3 5-3 3-2 1h-2l-1 1h-17l-3 2-7 4h0v-1l-2 1-2 2-2-1h-5l-4 1-2 1-2 2 2 1 2-1h0v2l-5 1-3 1-2 1-2-1-2 1-3 1-4 2h-3l2-2 4-4 4-2 1-2 1-3 3-3 1-4 1 4 4 1 3-2-2-5-1-2-4-1-3-1h-4l-4-1v-1l-2 1-1-1 2-2-2-1 2-2-1-2 2-2h-5l-1-4v-1h-4l-4-1-1 1-2 1-3 1-3 3-6-2-4 1-4-2-5-1-3-1-1-1 1-3h-2l-1 2H377l-5-6-2-2-7-3 1-6 4-3-4-3 3-5-2-4 2-3 5-3 4-4-5-4 1-7 2-4-2-3-1-2 1-3-7 2-7 3-1-4v-2l-3-2h-4l35-33 25-20 6 1 3 3h4l6-2 7-2 6 1 9-3 8-1v2l4-1 4-2h2l2 5 9-4-4 4 6-1 4-1h4l4 2 8 2 4 1h5l3 3-9 3 7 1 11-1 5-1 1 3 7-2-2-3 5-2h9l2 1 1 3 5-1 6 3 7-1h6l2-3 5-1 5 2-5 5 7-5 3 1 6-6-1-3-3-2 5-6 8-4 5 1 2 2v6l-5 3 6 1-4 5 9-4 2 4-4 4 1 3 7-4 7-4 4-6h6l5 1 4 3-2 2-5 3 1 3-2 3-11 4-7 1-3-2-3 3-8 4-3 3-7 4h-7l-5 3-3 3-6 1-8 5-10 6-5 5-5 7 6 1-1 5-1 5 7-1 7 2 4 3 1 2 5 2 4 3h8l4 1-3 5-2 6v7l5 6 4-2 6-7 2-9-2-4 9-2 8-5 5-4 1-4v-5l-3-4 9-7 1-5 4-9 3-1 7 1 4 1 5-2 3 2 4 4v2h7l-2 5-2 8 3 1 2 3 8-3 8-7 4-2 1 5 3 7 2 8-4 3 5 4 3 3 7 2 2 2v5l4 1 1 2-2 7-5 2-4 2-9 3-8 5-8 1-10-2h-8l-5 1-6 4-7 3-10 8-8 6 5-1 11-8 12-6h8l3 3-6 4-1 7v5l6 3 8-1 8-7-1 4 2 3-7 4-13 4-5 2-8 5-3-1 1-5 11-5h-9l-5 1Z"
          class="Canada"/>
    <path d="m539 49-5 2 11-1 2 2 8-2 2 1-3 5 5-2 2-5 5-1 3 1 2 2-3 5-2 4 4 2 5 3-3 2-7 1 1 2-3 2-7-1-5-1h-6l-9 2-11 1h-8v-3l-4-1-4 1-1-5h3l8-1h5l6-1-6-1h-15v-2l12-2h-7l-5-1 8-4 5-2 14-3 3 1ZM579 47l-7 4-3-4 2-1h6l2 1ZM687 49l-1 1h-8l-5 1-1-1-2-2 2-2 2-1 9 1 4 3Z"
          class="Canada"/>
    <path d="m647 49 1 3 7-4 12-2 2 5-3 3 9-1 5-2 7 2 3 3-1 2 9-1 1 3 9 2 2 2 1 6-9 2 8 4 5 1 4 5h6l-3 4-11 7-4-3-4-5-6 1-2 3 3 3 4 3 1 1v6l-3 4-5-2-9-4 4 5 3 3-1 2-11-2-7-3-4-3 2-2-4-3-5-2-1 1-13 1-2-2 5-4h8l9-1v-2l3-3 9-5v-4l-5-3-7-2 4-1-2-4h-4l-2-2-3 2-8 1-14-2-7-1-6-1-2-2 6-2h-5l3-6 7-4 6-2 11-2-6 4ZM597 45l4 1 7-1v2l-6 2 3 3-5 4-8 2h-4l-1-2-5-4 1-2 8 1-1-3 7-3ZM620 51l-8 3h-5l2-4 3-3 4-2 5-1h8l6 1-10 5-5 1ZM504 58l-14 2 1-2-6-3 4-2 8-4 7-3 1-3 14-1 4 1h9l2 2 2 2-7 1-13 4-10 4-2 2ZM629 39l-4 2h-5l-4-1 5-3 7-1 1 2v1ZM620 31v2l-2 2-6 4-7 1-3-1 3-3h-7l5-3h4l7-2h6ZM581 33l-1 2 4-1h4l-2 3-5 2-14 1-13 2h-6l2-1 11-3-18 1-4-1 11-5 6-1 8 2 3 2 6 1 1-5 5-2 4 1-2 2ZM636 29l3 1h7l2 2-3 2 3 1 1 1h5l5 1 7-1 8-1 6 1 2 2-1 2-3 1-7 1-4-1-12 1h-14l-8-2 1-3 2-2-1-2-7-1-3-1 4-2h7ZM561 26l-6 4-5 2h-4l-10 2-7 1-4-1 12-4 12-3h6l6-1ZM642 27h-8v-2h7l2 1-1 1ZM583 26l-9 1-3-1 5-2h6l4 1-3 1ZM591 22l-6 1h-6l1-1 6-1h2l3 1ZM638 24l-7 1-1-1v-2l2-1h6l3 2-3 1ZM624 23l-1 2-5-1-4-1h-8l5-2-3-1 2-1h7l7 2v2ZM678 17l3 1-7 2-10 3-7 1-7-1-2-2 3-2 4-1h-7l-2-1 1-2 5-2 4-1 4-1-1-1h9l1 2 5 1 5 1-1 3Z"
          class="Canada"/>
    <path d="M757 3h9l7 1 5 1-1 1-10 1-9 1-4 1h7l-10 3-7 1-9 3-8 1-3 1h-12l5 1-4 1 1 2-5 2-7 1-3 2-7 1v1h6l-1 1-13 3-8-1-12 1-5-1h-7l2-2 8-2 2-3h3l8 2-2-3-5-1 5-2 8-1 2-2-3-1 1-3 10 1h2l7-2h-20l-4-1-1-2-2-1 1-1 6-1h4l7-1 7-1h4l3 1 5-2 5-1h42Z"
          class="Canada"/>
    <path d="m1034 198 1 1-1 1 2 1h3l-1 3-2 1-3-1-1 3h-3l-1-1-2 2h-3l-2-1-2-3-2 1v-3l3-3v-2l2 1 2-1h4l1-1 5 1z"
          name="Switzerland"/>
    <path d="m1602 382-4 3-5-2-1-5 2-3 6-2h3l2 2-2 3-1 4ZM1626 186l9 4 6 6h7l3-3 7-1 1 5v3l3 6v7l-7-2-3 3 5 5 4 8h-3l2 3-5-4v4l-7 2 3 4h-4l-4-2-1 4-4 4-2 4-6 1-3 3-5 2 2-3-3-2 2-5-4-3-3 2-4 5-1 4h-5l-2 3 5 5 5 1 1 2 5 2 4-4 6 2h4l2 4-7 2-1 3-4 3v5l7 3 4 7 6 5 5 5 2 5-3 2 2 3 4 2 1 6v5h-3l-2 7-2 9-3 7-7 6-6 6h-6l-3 3-3-2-2 3-7 4h-6l-1 7-3 1-2-5 1-2-8-3-2 2-6-2-3-3v-3l-5-2-4-2-4 3-5 1h-4l-3 2-3 1 2 7h-3l-1-2v-2l-4 1-2-1-5-2 1-5-4-2-2-6-6 1-1-7 5-6-1-5-2-5-2-1-3-4h-3l-6-1 1-2-4-4-3 2-5-1-5 4-4 5-4 1-3-2h-3l-4-2-3 2-2 5-2-5-3 1-6-1-7-1-5-3-4-1-3-3-3-1-7-4-4-2-2 1-9-4-6-4-3-8 4 1-1-3-3-3-1-5-7-8-10-3-3-5-4-3-2-1-2-4v-2l-4-2-1 1-4-6 2-2-2-1 4-3 4-1h5l1-4h6l1-3 7-3 1-2-2-3 3-2-9-11 9-3 2-1-1-11 11 2 1-3-2-6 4-1 2-4 1-1 4 5 5 3 9 2 5 6 2 7 3 3 6 1 7 1 8 4h4l5 6 5 4h5l11 1 7-1 5 1 10 4h6l3 2 5-3 7-3h8l4-2 2-3 3-3-2-2-3-2 1-4h3l6 2 3-4 6-2 2-4 2-2 7-1 4 1-1-2-7-5-5-2-2 2-6-1-2 1-3-2v-7l-1-4 7 2 5-4-2-3v-6l1-2-2-3-4-2 2-3 5-1h6l8 2 6 2 8 6 4 3 4 4 7 6 10 2Z"
          class="China"/>
    <path d="m956 435 2 2 1 2 3 1 2-2h2l4 2 2 9-3 5-1 8 2 5v3h-2l-4-1h-4l-7 1-4 2-5 2h-1v-5l1-1-1-3-2-3h-2l-1-2 1-3-1-3 1-1h0l1-3-1-2 1-1h2l-1-5-2-3 1-2 1-1h1l1 1h5l1-2h1l1-1 1 3 1-1 3-1z"
          name="Côte d'Ivoire"/>
    <path d="m1073 454-3 7-1 1-1 5 1 3-1 1 3 4v2l3 3 2 2v3l1 2v4l-5-2-4-2h-8 0l-4 1-3-1h-12l1-5-2-4-3-1-1-3-2-1v-2l2-4 3-7h1l4-3 2-1 3 3 4-2v-3l2-2v-4l3-2 1-5 2-1v-3l2-5 5-5v-3l-2-2v-2l2-1 2 4 1 5-1 4 4 6h-5l-3-1-1 3 3 4 3 1 1 3 2 4-1 2z"
          name="Cameroon"/>
    <path d="m1141 468 4 5 2 1 2-1 2 1 4-2 1 3 5 4v8l2 1-2 2-2 2-2 3-1 3-1 5-1 3v4l-2 2v4h-1v4l1 3v1l-1 10 2 4-1 3 1 4 4 4v3l2 2v1h-1l-8 1-1 1-2 4 1 3-1 7-1 7 2 1 4 2 1-1v7h-4l-2-4-2-2-4-1-2-4-3 2h-5l-1-3-4-1h-3v-2h-4l-4 1-2-1-2 1 1-8-2-2-1-4 1-4-1-2v-4h-7l1-3h-3v2h-4l-1 4-1 1-3-1-2 1-4 1-2-4-1-2-2-4-1-4h-21l-2 1-1-2 2-1v-2l1-2 2-1h1l2-2h4v2l2 1 3-4 4-3 1-2v-6l2-6 3-3 4-3v-2l1-3v-6l1-5 1-4 2-4v-8l3-3 3-2 4 2 4 2 4 1 4 1 2-4h3l7-3 2 1h2v-1l3-1 4 1h3l2-1z"
          name="Democratic Republic of the Congo"/>
    <path d="M1091 479v4l-2 4-1 4-1 5v6l-1 3v2l-4 3-3 3-2 6v5l-1 3-4 3-3 4-2-1-1-2h-3l-2 2-1-1-2-2-2 1-2 3-5-7 5-3-3-4 2-2 4-1 1-3 3 3 5 1 1-3 1-5v-5l-3-3 2-8-1-1h-4l-2-3 1-3h7l4 2 5 2v-4l3-6 3-3 4 1h4z"
          name="Republic of Congo"/>
    <path d="m584 426-3 1-2 4-2 1-2 3-1 4-2 4 3 1 1 2 1 2v6l1 1 1 2 8-1 3 1 4 6 2-1h7l2 1-1 3-1 2-1 5 1 4 2 2v1l-3 4 2 1 2 2 1 7-1 1-1-4-1-2-2 2h-11v4h3v3l-1-1-4 1v5l3 2 1 4v3l-3 17-2-3h-2l3-7-4-3-3 1-3-1-3 1h-4l-3-7-3-2-2-3-4-3-1 1-2-2-3-2-2 1-5-1-1-3-1 1-6-4v-2l2-1-1-3 2-2 3-1 2-4 2-3-2-1 2-4-2-6 2-2-1-5-2-4 1-3 2 1 1-2-1-4v-1h3l5-4 2-1v-2l2-5 3-3h3l1-2 4 1 5-3 2-2 3-3h2l2 2-2 2z"
          name="Colombia"/>
    <path d="m515 432 1 3 2 3 2 2-2 1v3l1 1h-1v4l-3-1-2-2 1-1v-1l-1-2-3-1-1-1-1-2-1-1v2l-1 2-1-2-2-1-1-1v-2l1-2-1-1 1-1 1-1 4 2 1-1h2l1 2h1l2-1z"
          name="Costa Rica"/>
    <path d="m545 356 2 2 5-1 2 2 4 4 3 3h2l3 1v2h4l3 3v1l-4 1h-16l4-3-2-2h-3l-2-2-1-4h-3l-5-1-1-2-8-1-1-1 2-1-6-1-4 4h-2l-1 1-3 1-2-1 3-2 1-2 3-1 3-2h4l2-1h5l4 1 5 2z"
          name="Cuba"/>
    <path d="m1060 175 2 2 4 1v1l3 2v-2l3 1 1 2h4l3 3h-2l-1 1-1 1v1h-1v1l-2 1-2-1v2l-3-1h-2l-4-2-2 1-2 2-4-2-3-3-3-1v-3l-1-2 3-1 2-1 3-2 1-1 2 1 2-1z"
          name="Czech Republic"/>
    <path d="m1054 159 1 3-1 2 2 2 2 3-1 2 3 4-2 1-2-1-1 1-3 1-2 2-3 1 1 2v3l3 1 3 3-2 3-1 1 1 4-1 1-2-1-2-1-3 1h-5l-1 2-2-2h-2l-5-1-1 1h-4v-5l2-4-7-1-2-2v-2l-1-2 1-4-2-6h3l1-3 1-5-1-2 1-2h4l1 1 3-3-1-2v-3h6l1 2 4 1 1 2 4-1 3-1 5 2 3 2z"
          name="Germany"/>
    <path d="m1230 428-2 4-2-2-1 1h-3v-2l-1-2 2-3 2-3 2 1 2-2 1 2v3l-3 1 3 2z" name="Djibouti"/>
    <path d="m1046 148-2 5-5-4-1-2 6-2 2 3ZM1033 152h-6l-2-4-1-6 1-2 1-1 4-1 2-1 3-2v3l-1 2 1 2 2 1-1 2-1-1-3 5 1 3Z"
          class="Denmark"/>
    <path d="M586 386v-2l-1-2 1-1 1-2v-4l1-1h4l3 2h2v2h3v2h3l2 2-2 3-3-1h-4l-1 1h-3v-1h-2l-3 5-1-1v-2z"
          name="Dominican Republic"/>
    <path d="m1031 265-1 3 1 6-1 5-3 4v5l5 4v1l3 3 3 11 2 6v3l-1 5 1 3-1 4 1 4-2 2 3 5v3l2 3 3-1 4 3 3 4-19 12-16 13-8 3-6 1v-5l-3-1-3-1-1-3-19-14-19-14-20-16v-9l9-5 5-1 5-2 2-3 6-2 1-5 3-1 2-2 7-1 1-3-1-1-2-7v-4l-2-4 5-3 6-2 3-2 5-2 9-1 9-1 3 1 5-2 5-1 2 2h4z"
          name="Algeria"/>
    <path d="m559 503 1 5-2 4-6 7-7 2-3 6-1 4-3 3-3-4h-4l-1-2 2-2-1-2 3-5-1-3-2 3-4-3 1-2v-5l2-1 1-4 2-4-1-3 3-1 4-3 6 4h1l1 2 5 1 2-1 3 2 2 2z"
          name="Ecuador"/>
    <path d="m1172 301 4 10 1 1-2 3v5l-1 3-2 1-2-2-2-3-5-9-1 1 3 7 4 6 5 10 2 4 2 3 6 7-1 1v5l7 5 1 2h-66l-1-24-1-23-2-5 1-4-1-3 2-3h7l5 2 6 2 2 1 4-2 2-2 5-1 4 1 2 3 1-2 4 2h5l2-2z"
          name="Egypt"/>
    <path d="m1229 420-2 2-2-1-2-2-3-4-2-2-2-2-5-2-4-1-1-1-3 2-4-3-1 5-7-2-1-2 2-10 1-4 1-2 4-1 3-4 4 8 1 6 4 3 8 6 3 3 3 4 2 2 3 2z"
          name="Eritrea"/>
    <path d="m1114 125 1 1-3 3 2 6-1 1h-4l-4-2h-2l-4 1v-4l-2 1-3-2-1-4 5-1 6-1 5 1h5z" name="Estonia"/>
    <path d="M1207 409h4l5 2 2 2 2 3 3 3 2 2-2 3-2 3 1 2v2h4l2 1-2 2 3 4 2 3 2 2 19 8 5-1-16 20h-7l-5 5h-4l-1 2h-4l-3-2-5 2-1 3-4-1h-5l-7-6h-4l-2-2v-3l-3-1-3-7-3-2-1-3-3-3h-3l2-4h3v-8l2-6 2-2 1-3 2-5 3-3 2-6 1-6 7 2 1-5 4 3 3-2 1 1z"
          name="Ethiopia"/>
    <path d="M1104 70v4l8 4-3 4 6 6-1 5 5 4-1 4 7 4-1 3-3 3-8 8h-8l-8 2-7 1-3-3-5-2v-6l-3-5 2-3 3-4 9-6 3-1-1-2-7-3-2-2-1-9-8-3-6-3 3-2 5 3h5l5 1 3-2 1-4 6-2 6 2-1 4z"
          name="Finland"/>
    <path d="m1061 487-1 3 2 3h4l1 1-2 8 2 3 1 5-1 5-1 3-5-1-3-3-1 3-4 1-2 2 2 4-4 3-6-6-3-5-4-7v-2l2-2 1-5 1-5h10v-8h3l3 1 4-1h1z"
          name="Gabon"/>
    <path d="m957 158-4-1h-3l1-3v-3l4-1 4 4-2 4Z" class="United Kingdom"/>
    <path d="m973 130-5 6 4-1h5l-1 5-4 6h5v1l4 7 3 1 3 7 2 2 6 1-1 4-2 2 1 3-4 3h-6l-9 2-2-1-3 3-5-1-3 2-3-1 7-6 5-2-8-1-1-2 5-2-3-3 1-4h8v-3l-3-4h0l-6-1-1-2 2-3-1-1-3 3v-6l-2-3 2-7 3-4h10Z"
          class="United Kingdom"/>
    <path d="m1216 228 5 1 2 3 3 1-1 1 4 4h-4l-4-2-1 1-7 1-6-3h-5v-2l-2-5-4-2-3-1-2-2h1l4 1 8 1 8 3 1 1 3-1z"
          name="Georgia"/>
    <path d="m987 431-1 2 2 3v5l1 5 1 3-1 5 1 3 1 4 1 3-9 4-3 2-5 2-5-2v-3l-2-5 2-8 2-5-2-9v-9h10l2 1 2-1h2z"
          name="Ghana"/>
    <path d="M922 422v2h1l1-1 1 1 2 1 2 1 2-2 1-1h3l1 1 1 2 2 3-1 1v2h1l1 1-1 1 2 2-1 1-1 2 2 3 1 5h-2l-1 1 1 2-1 2h0-2l-1 3h-2l-1-2 1-2-3-4-1 1h-3v-2l-1-2v-2l-1-2-1-3h-5l-1 2h-2l-1 1v2l-4 3-2-4-2-3-2-1-1-1-1-3v-1l-2-1 3-3h1l2-1h1l1-1-1-2 1-1v-2h3l4 2 1-1h5z"
          name="Guinea"/>
    <path d="M892 417v-3h6l2-1h2l2 1h1l2-1 1 2-2 2-2-1-3-1-2 2h-7z" name="The Gambia"/>
    <path d="M909 421v5l-1 1h-1l-2 1h-1l-3 3-3-3h-2l-2-2v-1l-1-1-1-2 3-1 2 1 2-1h10z" name="Guinea-Bissau"/>
    <path d="M1050 487v8h-10l-1-1 2-7h9z" name="Equatorial Guinea"/>
    <path d="m1113 273 3 2 4-1 4 1v1l3-1-1 2-7 1v-1l-7-2 1-2ZM1122 240h-3l-3-1-6 2 4 3-3 1h-3l-3-3-1 2 2 3 3 3-2 2 3 3 3 2v3l-5-2 2 4h-3l2 6h-3l-5-3-2-5-1-4-3-3-3-4v-1l2-4v-2l2-1v-1l3-1 2-1h3l1-1h4l4-2 4 2h5v-3l2 1-1 4-1 1Z"
          class="Greece"/>
    <path d="m896 1 20 3-7 2h-31l1 1h13l9 1 7-1 3 1-5 3 9-2 18-1h10l1 2-15 3-2 1-11 1h8l-5 3-3 3-2 5 4 3h-6l-6 2 6 3v4h-4l4 5h-9l4 2-2 2-5 1h-6l4 3v3l-7-3-3 2 5 1 5 3v5l-7 1-3-3-4-3 1 4-6 3h16l-12 5-12 4-12 2h-5l-5 2-7 6-11 4h-3l-6 2-6 1-5 3-2 4-3 4-9 5 1 4-4 5-4 6h-6l-5-5h-9l-4-3v-5l-5-8-1-3 2-5-4-6 3-4-2-2 7-6 7-2 3-2 3-5-6 2-2 1-4 1-5-2 2-4 3-2h4l7 1-5-3-3-2-4 1-3-2 7-5-1-1-1-4-1-5-4-2 1-2-8-3-7-1-11 1h-9l-3-2-4-3 11-1h8l-15-2-6-2 2-1 15-3 15-2 3-1-8-2 5-2 14-3h6V8l9-1 11-1h10l3 2 11-3 7 2h5l6 2-7-3 2-1 12-2h12l5-2h38z"
          name="Greenland"/>
    <path d="m488 388-1 5-1 7h2l2 1v-1l2 1-3 2-3 2-1 1 1 2-2 1-1 1h0l-1 1-2 2v1l-3-1-3-1-3-1-3-3 1-1 1-2-1-1 3-5h7l1-3h-1l-1-1-1-2-2-2h2l1-4h10z"
          name="Guatemala"/>
    <path d="m663 464-1 5-4 2 1 1-1 4 2 4h2v4l4 6h-2l-3-1-2 2-2 1h-2l-1 2-2-1-4-3v-3l-2-3 2-5 1-3-1-3h-2l1-3-2-2h-3l-3-4 1-2v-3l4-1 1-1-2-3 1-2 5-4 3 3 4 4v3h2l3 3 2 3z"
          name="Guyana"/>
    <path d="m520 406-2-1-1 1-2 1h-2l-1 1h-1l-1-1h0l-1 1h-1v2l-2 1-1 1-1 1-1-1-2 1h-2l-1 4h0l-1 1h-2l-1-2h-1v-3h0l-2-1-2 1v-1l-2-1-1-1-2-1 2-1-1-2 1-1 3-2 3-2h0l2-1h3l2 1 3-1h2v-1h2l1 1h2l1-1 3 1h0l2 1 1 2 2 1 2 1z"
          name="Honduras"/>
    <path d="m1082 208 1 2 2 2-2 2-2-1h-4l-4-1h-3l-1 1-2-1-1 3 3 3 2 1 2 3 2 1 2 3 5 2-1 1-5-2-3-2-5-2-4-5h1l-3-3v-2l-3-1-2 3-1-3v-2h3l1-1 2 1 2 1v-2l2-1v-2l4-2 1 1 4 2 5 2 1-1z"
          name="Croatia"/>
    <path d="M587 375v4l-1 2-1 1 1 2v2l-4-1h-6l-3 1-3-2 1-2 5 1h4l3-1-3-3 1-2-4-1 2-2h3l5 1z" name="Haiti"/>
    <path d="m1096 192 3 2 1 1-3 2-2 4-3 4-4 1h-3l-4 2-1 1-5-2-4-2-1-1-1-2h-1l1-4-1-2h3v-2l3 1 2 1 4-1v-1h2l2-1h1l2-1 1-1h2l5 1h1z"
          name="Hungary"/>
    <path d="M1668 568h-3l-7-5 5-1 3 2 2 2v2ZM1692 559l1 1v2l-4 5-5 1h-1l1-3 3-3 5-3ZM1653 554l2 2 3-1 1 3-6 1-4 1h-3l2-4h3l2-2ZM1681 554l-1 3-9 2-7-1v-2l5-1 3 2 4-1 5-2ZM1601 545l11 1 1-3 10 3 2 5 9 1 6 4-6 2-6-3-6 1-5-1-6-1-6-2-4-1-2 1-11-3v-3h-6l5-6h6l5 3h2l1 2ZM1749 542l-3 4-1-5 1-2 2-2 1 2v3ZM1707 524l-2 2-4-1-1-3h6l1 2ZM1726 522l2 5-5-3-5-1-3 1h-4l2-4h7l6 2Z"
          class="Indonesia"/>
    <path d="m1786 519-1 20-2 21-5-5-5-1-2 2h-7l3-5 4-2-1-7-3-5-10-6h-5l-8-6-2 3h-2l-1-2v-3l-5-3 7-2h4l-1-2h-8l-2-4-5-1-3-3 8-2 3-2 9 3 1 2 1 11 6 3 5-6 7-4h5l4 2 4 2 7 2ZM1696 493l-4 6-4 1-6-1h-9l-5 1-1 5 5 6 3-3 11-2-1 3-2-1-3 4-5 2 5 8-1 3 5 7v4l-3 2-3-2 3-5-5 2-2-2 1-2-4-4 1-6-4 2v16l-4 1-2-2 2-5-1-7h-2l-2-4 3-4 1-5 3-10 1-3 5-5 4 2 7 1h7l5-5 1 2ZM1716 495v5h-3l-1 3 2 4-1 1-3-4-1-9 1-5 2-2v3l3 1 1 3ZM1608 489l1 4 4 4 4-1h3l4-3 2-1 6 2 4-1 3-9 2-2 2-8h6l5 1-3 6 5 6-1 3 6 6-7 1-1 4v6l-6 4v7l-3 10v-3l-7 3-2-4h-4l-3-2-7 2-2-3h-8l-1-9-2-2-3-5-1-6 1-6 3-4ZM1585 539l-6 1-4-6-8-5-2-4-4-5-3-5-4-9-5-5-1-6-3-5-5-4-3-5-4-4-7-7v-3h3l9 1 6 6 4 5 3 2 6 7h6l4 5 4 5 4 3-2 5 3 3h2l1 4 2 4h4l3 5-2 8-1 9Z"
          class="Indonesia"/>
    <path d="m1428 308-3 3-1 6 6 2 5 3 8 4 8 1 4 3 4 1 7 1h5v-2l-2-4v-3l3-2 2 6v1l5 2 4-1 4 1 5-1-1-3-2-2 4-1 4-5 5-4 5 1 3-2 4 4-1 2 6 1 1 3-2 1 2 4-5-1-6 4 1 4-2 5v3l-1 6-5-2 1 7-1 2 1 3-2 1-5-10h-1l-1 4-3-3 1-4h2l2-6-3-1h-11l-1-5h-3l-5-3-1 4 5 4-3 2-1 2 3 2v4l3 5 1 5v3l-4-1-7 2 1 5-2 3-8 5-5 7-4 4-5 5 1 2-3 2-5 2-2 1-1 5 1 8 1 5-2 6 1 11-3 1-2 4 2 3-5 1-2 5-2 2-6-6-3-9-3-7-2-3-3-6-2-8-2-4-5-9-4-12-3-9v-7l-2-6-8 4-4-1-8-8 3-2-2-3-7-5 3-5h12l-2-5-3-3-2-5-4-3 5-7 7 1 4-7 2-7 4-6-1-5 4-3-5-4-3-4-3-6 2-2 8 1 6-1 4-5 7 7 1 6 3 3 1 3-4-1 3 7 6 4 9 5z"
          name="India"/>
    <path d="M957 158v5l-3 5-9 4-7-1 4-7-2-6 7-5 4-2v3l-1 3h3l4 1z" name="Ireland"/>
    <path d="M1229 253h2l5-5h2l2 2-1 3 4 3h1l2 5 6 1 4 3 8 1 8-2v-1l4-1 3-4h4l2-1 4 1 6 3 5 1 7 5 4 1 2 5-1 8v5l2 1-1 3 2 5 1 4 5 1 1 5-4 5 3 4 3 4 6 2 1 6 2 1 1 3-7 3-1 8-11-2-6-2h-6l-4-8-3-1-4 1-5 3-7-2-6-5-5-2-5-6-5-9-3 1-3-2-2 3-4-4v-3h-2v-5l-3-5-7-3-5-6 1-5 2-2-1-4-4-2-4-8-4-5v-2l-2-7 3-2 1 2 3 3 4 1z"
          name="Iran"/>
    <path d="m1224 263 4 8 4 2 1 4-2 2-1 5 5 6 7 3 3 5v5h2v3l4 4-4-1h-3l-4 6-10-1-17-12-8-5-7-2-3-8 11-6 1-8-1-5 3-1 2-4 2-1 6 1 2 1 2-1z"
          name="Iraq"/>
    <path d="m925 85-2 3 5 4-6 4-13 4-4 1-6-1-12-2 5-2-9-3 8-1v-2l-9-1 4-4h6l6 3 7-3 5 2 8-3h7z" name="Iceland"/>
    <path d="M1179 288v4h0l-1 2-2-1v4l1 1-1 1v1h2l1 2-2 10-1-1-4-10 2-2h-1l1-3 1-5v-2h2l1-1h1z" name="Israel"/>
    <path d="m1068 256-1 6v5l-5-3h-2l-8-4 1-3 6 1 5-1 4-1ZM1034 237l4 5-1 8h-2l-2 2-2-2-1-7-1-4h3l2-2Z" class="Italy"/>
    <path d="M1056 204v3l1 3-4-1-4 2v5l2 3 5 3 3 6 6 5h4l1 1-1 1 5 3 4 2 4 3 1 1-1 2-3-3-5-1-2 4 4 3v3l-2 1-3 5-2 1v-2l1-4 1-1-2-4-2-3-2-1-2-3-3-1-3-2-4-1-4-3-5-4-4-3-1-7h-3l-4-3-3 1-2 3-3 1 1-3-3-1-1-5 1-2-1-2v-2l2 2 3-1 2-2 1 1h3l1-3 3 1 3-1v-2h3v-1l5-1 2 2 7 2Z"
          class="Italy"/>
    <path d="m557 387-2 1-3-1-3-2 1-2h3l4 1 3 1 1 2h-4z" name="Jamaica"/>
    <path d="m1198 295-1 1-10 4 6 6-2 1-1 2-4 1-1 2-2 2-6-1v-1l2-10-1-2 1-2-1-4 1-2 6 2 10-6 3 7z" name="Jordan"/>
    <path d="m1709 283 1 2-1 4-3-2-2 1v4l-5-2-1-3 2-4 3 1 1-3 5 2Z" class="Japan"/>
    <path d="m1733 263 1 6 2 3v4l-6 3-9 1-4 7-5-2-2-5-9 1-5 3h-6l7 5 1 11-3 3-3-3-1-6-4-1-4-5 4-2 1-4 4-3 2-5 10-2 6 2v-12l5 3 5-6 1-2-1-8-5-7v-4l5-2 8 9 3 5-1 7 3 6ZM1721 219l5 1 2-3 6 7-7 2v6l-11-4 1 7h-5l-5-6-1-5h6l-5-9-2-5 11 7 5 2Z"
          class="Japan"/>
    <path d="m1338 161 5-1 9-6-1 2 9 5 18 16 1-4 8 4 7-2 3 1 4 4 4 1 3 3 6-1 5 4-2 4-4 1 2 6-1 3-11-2 1 11-2 1-9 3 9 11-3 1 2 4-4-1-3-2-8-1h-9l-1 1-9-3-2 1v4l-9-2-3 1v3l-3 1-5 4-1 5h-2l-2-3h-7l-3-6h-2l-2-6-7-5-9 1-6 1-6-6-5-2-9-5h-1l-12 3 6 24h-3l-5-5-3-2-6 2-2 2v-4l-1-3-7-2-4-5-3-2v-2h5l-1-4 4-1 5 1-1-6-2-4h-5l-5-1-5 2-4 2-3-1v-4l-5-4h-3l-5-4 1-5-2-1 3-7 6 4-1-5 8-6 8-1 12 5 6 2 5-2h7l8 3 1-2h7v-3l-10-4 4-3-2-2 4-1-5-4 2-3 17-2 1-1 11-2 3-3 9 1 5 7 4-2 7 2 1 4z"
          name="Kazakhstan"/>
    <path d="m1224 477-5 7v23l3 6-4 2-1 3h-3v5l-2 2-1 5-3 2-8-7v-3l-20-13v-5l-1-3h0l1-2 3-5 2-4-3-8v-3l-3-4 3-4 4-4 3 1v3l2 2h4l7 6h5l3 1 2-3 5-2 3 2h3z"
          name="Kenya"/>
    <path d="m1401 230-1 2-7 3-1 3h-6l-1 4-5-1-4 2-4 3 1 1-1 2-9 1-7-2h-6v-4l6 2 1-2h4l5-4-7-4-3 2-5-3 3-4h-1v-3l3-1 9 2v-4l2-1 9 3 1-1h9l8 1 3 2 4 1z"
          name="Kyrgyzstan"/>
    <path d="m1590 411 2 4v8l-9 5 2 3-5 1-5 3-5-1-2-4-4-6-2-8 3-5 7-2 5 1 5 3 2-5 6 3z" name="Cambodia"/>
    <path d="M1653 260v-1h2l1-3h4l2-1v-1l8 7 3 5 4 7-1 4-4 1-3 2-5 1-2-4-1-4-5-7 3-1-6-6z" name="Republic of Korea"/>
    <path d="m1248 309 1 3v2l2 4-4 1-1-3-5-1 3-6h3z" name="Kuwait"/>
    <path d="m1590 411-6-3-1 5-5-3 1-3v-5l-6-6-1-6-5-5-4-1-1 3h-3l-2-1-6 3v-12h-4l-1-4-2-2v-3l4-4 1 2h3l-2-7 3-1 4 5 3 6h7l3 5-3 2-1 2 7 4 6 8 4 5 5 5 2 4v7z"
          name="Lao PDR"/>
    <path d="M1179 288h-1l-1 1h-2l2-5 2-4v-1l2 1 2 2-3 3-1 3z" name="Lebanon"/>
    <path d="m939 453-1 1 1 3-1 3 1 2 2 1 2 2 1 3h-1v6h-2l-6-3-5-5-5-4-3-4 1-2v-2l3-3 2-3h2l1-1 3 4-1 3 1 1h2l1-3 2 1z"
          name="Liberia"/>
    <path d="m1123 299-2 3 1 3-1 4 2 5 1 23 1 24 1 12h-7v3l-22-12-23-12-5 3-4 2-3-3-9-3-3-4-4-3-3 1-2-3v-3l-3-5 2-2-1-4 1-4-1-3 1-5v-3l-2-6 2-1 1-3-1-3 4-2 1-2 3-2v-5l7 2h2l4 1 8 3 2 5 5 2 8 2 6 3 3-1 2-3-1-5 1-3 4-3 3-1 8 1 2 3h2l2 1 5 1 2 2z"
          name="Libya"/>
    <path d="m1446 462-5 2-3-6-1-9 2-10 4 3 3 5 3 7-1 6-2 2z" name="Sri Lanka"/>
    <path d="m1139 698-2 1-4-5 4-4 3-3 2-1 3 2 1 2-2 3-1 2-3 1-1 2z" name="Lesotho"/>
    <path d="m1111 148 1 2-4 2v4l-5 2h-4l-2-2-2-1-1-1v-2l-2-1-5-1-2-5 5-2 8 1 5-1 1 1 2 1 5 3z" name="Lithuania"/>
    <path d="m1017 185-2 1-1-1 1-3 1-1 1 2v2z" name="Luxembourg"/>
    <path d="m1113 137 2 1 1 3 2 3-4 3-3 1-5-3-2-1-1-1-5 1-8-1-5 2v-4l1-4 4-2 5 4h4v-4l3-1h3l4 2 4 1z" name="Latvia"/>
    <path d="m975 276 2 4v4l2 7 1 1-1 3-7 1-2 2-3 1-1 5-6 2-2 3-5 2-5 1-9 5v7h-1v4h-3l-2 1h-9l-2 5-2 1-3 8-8 7-1 9-3 3-1 2h-12 0v-3l2-1 2-4v-2l2-4 3-5 2-1 2-3v-4l2-4 4-2 3-7h0l3-2 5-1 5-4 3-2 4-5-1-8 2-6 1-3 4-5 5-2 4-3 4-7 2-4h4l3 3h5l5 1h3z"
          name="Morocco"/>
    <path d="m1129 210-1-3v-5l-4-4-2-2-1-2-2-1 1-1h3l4 2h2l3 2v2l2 1 1 2 2 2v1h1l-2 1h-3v-1h-1v1l-1 3v2h-2z"
          name="Moldova"/>
    <path d="M1268 589v8l2 3-1 3-1 2-2-4-1 2 1 4-1 3-2 2v5l-3 8-4 8-4 13-3 8-3 8-4 1-6 3-2-1-5-3-1-3v-6l-1-5-1-5 2-4 2-1v-2l3-5 1-4-1-3-1-5v-5l2-4 1-4h3l3-2 3-1h2l3-4 5-4 2-3v-3l2 1 3-4 1-4 2-3 1 3 2 3 1 4z"
          name="Madagascar"/>
    <path d="M449 336h3l-4 5-1 5-2 9-1 3v3l1 3 1 5 3 5v4l2 3 6 2 2 2 5-1 4-1 5-1 3-1 4-3 2-4 1-5 1-2 4-2 6-1h9l1 1-1 3-3 4-2 4 1 1-1 3-2 5-2-2h-2l-2 4-1-1-1 1v1l-5-1h-5l-1 4h-2l1 2 2 2 1 1 1 1-1 2h-7l-3 5v3l-1 2-5-7-3-2-4-2h-4l-4 3h-3l-4-1-4-2-5-2-4-1-6-3-4-3-1-2-3-1-6-2-2-2-5-4-2-4-1-3 2-1v-2l1-1 1-3-2-3v-2l-1-3-4-7-5-5-2-4-4-2v-2l1-4-2-1-3-4v-4l-3-1-2-3-2-3 1-2-2-5v-5l1-2-3-3h-2l-3-1-1 2-1 3-1 5 1 3 3 4 1 2h0v2h1v5l2 1v2l3 4v6l1 2 1 3v4h3l1 3 2 3-1 1-2 2h-1l-1-4-3-3-3-3-3-2 1-5v-3l-2-2-3-3-1 1-1-2-3-1-2-4v-1l2 1 3-3 1-3-3-4-2-2-1-4-1-4-1-5v-6l7-1h7l-1 1 7 3 11 5h15l1-3h9l1 2 2 2 3 3 1 3v4l2 2 4 2 5-5h5l3 2 1 5 1 3 3 4v5l1 3 4 2 3 1z"
          name="Mexico"/>
    <path d="M1106 237h-1l-1 1h-3l-2 1-3 1-3-2-1-3 1-2h1v-1l3-1h1l2-1h2l3 2 1 5z" name="Macedonia"/>
    <path d="M1010 379v15l-3 4v4l-5 1h-8l-2 3h-7l-2-1-3 1-5 2-1 2-4 3-1 2-2 1-3-1-2 2-1 4-4 6v2l-1 3v3l-2 1-2 1-1-3-1 1h-1l-1 2h-5l-1-1h-1l-2-2 1-1-1-1h-1v-2l1-1-2-3-1-2-1-1h-1l-1 1h-2l-2 2-2-1-2-1-1-1-1 1h-1v-4l-1-2-2-2-1-4v-4l2-1 1-4h2l4 2 3-2 2 1 1-2h22l2-4-1-1-3-28-2-27h8l19 14 19 14 1 3 3 1 3 1v5l6-1z"
          name="Mali"/>
    <path d="m1548 364-4 4v3l-3 1-3 3h-4l-2 7-2 1 4 6 4 5 3 4-2 6-2 1 2 3 5 5 1 4v3l2 6-2 6-2 6-1-5 1-5-2-3v-7l-3-4-3-7-2-8-3-6-3 3-6 5-3-1-4-1 1-8-2-6-5-7v-3l-3-1-5-5-1-5 2 1v-5l2-1-1-3 1-2-1-7 5 2 1-6v-3l2-5-1-4 6-4 5 1-2-4 2-1-1-3h3l3 4 2 1 2 5 1 5-5 6 1 7 6-1 2 6 4 2-1 5 5 2 2 1 4-1v2z"
          name="Myanmar"/>
    <path d="m1091 227-1 2h-2v-1l-2 3 1 2h-2l-1-2-3-2 1-1v-3l2-2h1l1 1 1 1h2l2 2h0z" name="Montenegro"/>
    <path d="m1496 182 4-2h11l7 3 5 4h4l7 1 4-2 6-1 4-4h4l3 2h6l1 4v7l3 2 2-1 6 1 2-2 5 2 7 4 1 3-4-1-7 1-2 2-2 4-6 2-3 4-6-2h-4v4l3 2 2 2-3 2-2 4-5 2h-7l-7 2-5 4-3-2h-6l-10-4-5-1-7 1-11-1h-6l-4-4-5-6-4-1-8-4h-7l-6-1-3-3-2-8-6-5-8-2-5-3-4-5 5-1 7-5 6-3 5 2h5l5 3h5l8 2 2-5-4-3 2-7 7 3 4 1 7 1 4 5 8 2z"
          name="Mongolia"/>
    <path d="M1167 674h-4l-1-3v-3l-1-3 2-7-1-4-3-9 7-8 1-4 1-1 1-4-1-1 1-5 1-5v-8l-2-2h-3l-1-2-3-1h-5v-7l17-5 3 3 2-1 2 2v2l-1 3v5l4 4 1-5 3-1v-8l-2-5-2-2h-1v-7l1-6 2-1 7 2 2-1h4l2-2h3l6-2 5-4 1 3-1 6 1 6v13l-2 5-2 4-4 4-5 3-6 3-7 7-2 1-4 4-3 2-1 4 3 5 1 4v2h1l-1 6-1 3 1 1-1 3-2 2-5 2-7 4-2 2v3h1v4z"
          name="Mozambique"/>
    <path d="M959 342h-8l2 27 3 28 1 1-2 4h-22l-1 2-2-1-3 2-4-2h-2l-1 4-2 1-4-4-3-5-4-2-2-2h-3l-3 2-3-1-2 2v-3l1-3 1-6v-7l-1-3 1-3-2-3-2-3 1-2h22l-1-9 1-4h5l1-17 18 1v-10l20 16z"
          name="Mauritania"/>
    <path d="M1182 589h1l2 2 2 5v8l-3 1-1 5-4-4v-5l1-3v-2l-2-2-2 1-3-4-3-1 2-6 2-2-1-6 1-5 1-2-1-5-3-3 6 1 1 2v1l2 4v8l-2 3 2 5-1 3 2 2-1 2 1 1 1-1 2 2v-4h-2v-1z"
          name="Malawi"/>
    <path d="m1564 462 2 1 3 3 3 5v9l1 4 2 2 2 5v3h-4l-5-5-7-5-1-3-3-4-1-6-2-3v-5l-1-3 1-1 4 3 1 3h4l1-3ZM1654 475l-5-1h-6l-2 8-2 2-3 9-4 1-6-2-2 1-4 3h-3l-4 1-4-4-1-4 4 2 5-1 1-5 2-2 7-1 4-5 2-4 3 3 1-2h3v-7l4-5 3-5h2l3 4v2l4 2 5 2v3h-4l1 3-4 2Z"
          class="Malaysia"/>
    <path d="m1116 614 5-1h3l3 2h0l-4 2h-1l-4 2-2-3-9 3h-4l-1 23h-5l-1 19-1 23-5 4h-3l-3-1h-3l-1-3-2-2-2 3-4-5-2-4-1-7-1-4-2-10v-8l-1-3-2-3-2-5-3-8-1-4-5-6v-5l3-1 3-1h4l3 3 1-1h22l4 3 14 1 10-3z"
          name="Namibia"/>
    <path d="m1069 355 1 10 2 2v2l3 2-1 3-2 13v8l-7 6-3 9 3 2v4h3v3l-2 1v2h-1l-4-7h-1l-4 3-5-2h-3l-1 1h-4l-3 2-3 1-7-4-2 2h-3l-2-3-6-2-6 1-2 1v4l-2 2v6l-5-4h-2l-2 2 1-4-7-2v-3l-3-4-1-3v-3h4l2-3h8l5-1v-4l3-4v-15l8-3 16-13 19-12 9 3 3 3 4-2z"
          name="Niger"/>
    <path d="m1066 422 3 2-1 1v2l-5 6-1 4-1 3-1 1-2 5-3 3v3l-2 2v3l-4 2-3-2h-2l-4 3h-1l-3 7-1 4-6 3-3-1-2 2h-4l-3-5-2-4-4-4h-9v-15l1-4 1-2 3-4v-2l1-2-2-4 1-2v-6l2-2v-4l2-1 6-1 6 2 2 3h3l2-2 7 3h3l3-2h4l1-1h3l5 2 4-4 1 1 4 7h1z"
          name="Nigeria"/>
    <path d="M520 406h-1v4l-1 2-1 3-1 2v5l-1 1v4l-1 2v2l1 1-2 1h-1l-1-2h-3l-4-1-1 1-2-2-2-3-1-2-3-2-2-3 1-1v1l1-1h2l1-1h0l1-4h2l2-1 1 1 1-1 1-1 2-1v-2h1l1-1h0l1 1h1l1-1h2l2-1 1-1 2 1z"
          name="Nicaragua"/>
    <path d="m1114 68-7 2h-3l1-4-6-2-6 2-1 4-3 2-5-1h-5l-5-2-3 1h-2v4l-8-1-1 3h-4l-2 4-3 6-6 8 2 2-2 2h-4l-2 5 1 8 3 3-1 7-3 4-2 3-3-3-9 6-6 2-7-3-1-6-2-14 4-4 11-5 8-5 7-8 9-11 6-4 11-7 8-2h7l5-4h8l7-1 13 4-5 1 6 4ZM1077 25l-8 2-7-1 2-1-2-2 7-1 2 2 6 1ZM1051 17l13 3-9 2-1 3-3 1-1 4h-4l-9-2 3-2-6-2-7-3-4-4 10-2 2 2h5l1-2h5l5 2ZM1075 14l8 1-5 3h-10l-10-1-1-1h-5l-5-2 11-1 5 1 3-1 9 1Z"
          class="Norway"/>
    <path d="M1469 323v3l2 4v2h-5l-7-1-4-1-4-3-8-1-7-3-6-4-6-2 1-6 3-3 2-1 4 2 7 4 3 1 3 3 4 1 5 3 7 1 6 1z"
          name="Nepal"/>
    <path d="m1284 395-2-5-6-10 17-7 2-12-3-5v-3l2-2-1-3 3-1-1-1v-4h3l3 4 3 3h4l3 2 3 3 2 2 2 1v2l-2 3v2l-2 2-2 5-3-1-1 2v3l1 4-1 1h-2l-4 3v3l-1 1h-4l-2 2 1 2-3 2-3-1-4 3h-2ZM1296 337l-1-2 1-3 1 1v3l-1 1Z"
          class="Oman"/>
    <path d="m1402 274-4 5-6 1-8-1-2 2 3 6 3 4 5 4-4 3 1 5-4 6-2 7-5 7-6-1-5 7 4 3 1 5 4 3 2 5h-12l-4 5-4-2-2-5-5-4-10 1h-9l-7 1 1-8 7-3-1-3-2-1-1-6-6-2-3-4-3-4 9 4 6-1h3l1-1 4 1 7-3-1-5 2-4h4v-2l4-1 2 1 2-2-1-4 2-4 3-1-3-5 5 1 1-3-1-2 2-3-2-3-1-3 2-3 5-1 6-1 3-1 2-1 5 3 3 5 10 3z"
          name="Pakistan"/>
    <path d="M549 446v1l1 4-1 2-2-1-1 3-2-1-1-4 2-2h-2l-1-2-3-2h-2l-1 3-3 1h-1v2l2 3-2 1v1h-3l-1-3-1 1-1-1-1-2-3-1h-4v1-5l1-1h-1v-3l2-1 2 3v1h3l1 1h3l3-2 3-1 2-2h3v1h3l3 1 1 2 2 2z"
          name="Panama"/>
    <path d="M591 529h-6v1l-5 1-6 5-1 3-1 2 1 3-4 2 1 3-2 1 3 6 3 4-1 3h4l2 3h5l4-3 1 9 2 1 3-1 6 10-1 3v10l-2 3 1 2-1 2 3 6-3 7-1 3-3 2-6-4v-3l-12-6-11-7-4-4-3-5 1-2-6-9-6-12-6-12-3-3-2-5-4-4-4-3 1-3-3-6 2-4 4-4 1 2-1 2v2h4l3 4 3-3 1-4 3-6 7-2 6-7 2-4-1-5 2-1 3 3 2 3 3 2 3 7h4l4-1 2 1 3-1 4 3-3 7h2l3 3z"
          name="Peru"/>
    <path d="M1701 448v4l1 4-2 6-2-7-2 3 2 5-2 3-7-4-2-4 2-3-4-3-1 2h-3l-4 4-1-2 2-6 3-2 3-2 2 3 4-2 1-3h4l-1-5 5 3 1 3 1 3ZM1686 436l-2 2-1 4-2 2-4-4 1-2 2-2v-4h3l-1 4 4-6v6ZM1656 442l-7 6 2-4 4-4 3-5 2-6 2 5-4 4-2 4ZM1673 426l4 2h3v2l-2 3-3 2-1-3v-3l-1-3ZM1693 424l3 7-5-2v2l2 4-2 2-1-5h-2l-1-4 3 1v-3l-4-5h5l2 3ZM1670 418l-1 6-2-4-4-5 5 1 2 2ZM1664 383l4 2 1-2 1 2-1 3 3 4-1 5-3 3v5l2 5 3 1 3-1 7 3v4l2 1v3l-5-3-2-3-1 2-4-4-5 1-3-1-1-3 2-1-2-2v2l-4-3-1-3-1-6 3 2-1-10v-6h4Z"
          class="Philippines"/>
    <path d="M1868 546h-1l-3-2-2-4-1-5 1-1 1 2 1 2 3 4 2 2-1 2ZM1847 537l-3 1-1 1-3 2-3 1h-4l-4-1-3-2v-2l5 1 4-1 1-3h1v3h3l2-2 3-3v-3h3l1 1v3l-2 4ZM1783 560l2-21 1-20 9 4 10 4 4 3 3 3 1 4 9 4 1 3-5 1 1 4 4 5 3 6h4l-1 3 4 1-1 1 5 3-1 2h-3l-2-1-4-1-6-1-4-4-3-4-2-5-7-3-5 2-4 2v5l-4 2-3-1-6-1ZM1854 531l-2 1-1-3-1-3-3-2-3-3-4-2 2-1 3 2 2 1 2 2 2 2 2 2 1 4Z"
          class="Papua New Guinea"/>
    <path d="m1080 155 6 1 9-1 2 1 2 2v3l2 2v2l-3 2 2 3 1 2 3 6v1l-3 1-3 5 1 3h-1l-5-3-3 1h-3l-3 1-2-2-2 1v-1l-3-3h-4v-2l-4-1v2l-3-2v-1l-4-1-2-2-3-4 1-2-2-3-2-2 1-2-1-3 3-2 7-3 6-2 5 1v2h5z"
          name="Poland"/>
    <path d="m1660 230 2 1h-2l-1 2-1 2 3 4-2 2v1l-1 2-3 1-1 2 1 2v1l2 1 5 3v1l-2 1h-4l-1 3h-2 0l-3-1v2h-2v-1l-2-1-2-1v-3h1l-1-2v-3l-1-1-4-1-3-1 2-5 4-3 1-5 4 3h4l-3-4 7-2v-4l5 4z"
          name="Dem. Rep. Korea"/>
    <path d="m663 631 2 4v9l6 1 2-1 4 1 1 2 1 6 1 3h2l2-1 2 1 1 4-1 3v4l-1 6-4 5-4 1-7-1-5-2 4-10-1-3-6-2-7-5-5-1-11-10 1-8v-3l2-6 10-2h5l5 3 1 2z"
          name="Paraguay"/>
    <path d="m1178 294 1 4-1 2h-2v-1l1-1-1-1v-4l2 1z" name="Palestine"/>
    <path d="M1270 344h-1l-2-1-1-5 1-3 2-1 1 2 1 4-1 4z" name="Qatar"/>
    <path d="m1119 193 2 1 1 2 2 2 4 4v5l1 3 3 1 2-1 2 1 1 2-2 1h-2v8l-3-1-4-2-6 1-3 2-7-1-4-1-2 1-2-3-1-1 1-1-1-1-2 2-3-2-1-3-3-1-1-2-3-3 4-1 3-4 2-4 3-2 2-1 3 1h3l3 1 1-1h4l1-2h2z"
          name="Romania"/>
    <path d="m1159 509 2 4v4h-5l-2 4-3-1v-3l1-1v-4l2-2 1 1 4-2z" name="Rwanda"/>
    <path d="M939 324v2l-1 10-18-1v17h-5l-1 4v9h-21l-2 2 1-3h12l1-2 2-3 2-9 8-7 3-8 2-1 2-5h9l2-1h3v-4h1z"
          name="Western Sahara"/>
    <path d="m1241 315 5 1 1 3h4l3 5 3 2 1 2 4 3 1 2-1 2 1 2 2 2 1 2 1 2 2 1h1l1 2 1 2 2 6 17 3 1-1 3 5-2 12-17 7-15 2-5 3-4 7-3 1-1-2h-8l-1-1h-6l-2 1-2-2-1 3v3l-2 2-1-3-2-2v-2l-3-3-4-5-1-5-5-5-2-1-4-6-1-4v-4l-4-7-2-3-3-1-3-4 1-1-2-4-2-1-2-5-4-5-3-4h-3l1-4v-5l6 1 2-2 1-2 5-1v-2l2-1-6-6 10-4 1-1 7 2 9 5 16 13h11z"
          name="Saudi Arabia"/>
    <path d="m1191 409-1 6-2 6-3 3-2 5-1 3-2 2-2 6v1h-1v-5l-3-3-1-5v-4l-2-1-1 2h-3l1 2 1 4-3 3-3 5-3 1-4-4-3 1v2l-3 1v2h-6l-1-2h-4l-2 1h-1l-3-4-1-2-4 1-2 3-1 6-2 1-2 1v-1l-2-2-1-2 1-2v-3l-3-4-1-3v-1l-2-2v-4l-1-2h-2v-2l2-3-1-3 2-2-1-1 1-4 2-5 5 1-1-26v-3h7l-1-12h66l2 6-1 1 1 7 3 7 2 2 3 2-3 4-4 1-1 2-1 4-2 10 1 2z"
          name="Sudan"/>
    <path d="M1178 441v5l-1 2h-2l-2 4h3l3 3 1 3 3 2 3 7-4 4-3 4-4 3h-4l-4 1-4-1-2 1-5-4-1-3-4 2-2-1-2 1h-2l-4-6-1-2-4-2-1-4-3-3-4-3v-2l-3-3-4-2 2-1 2-1 1-6 2-3 4-1 1 2 3 4h1l2-1h4l1 2h6v-2l3-1v-2l3-1 4 4 3-1 3-5 3-3-1-4-1-2h3l1-2 2 1v4l1 5 3 3v5h1z"
          name="South Sudan"/>
    <path d="M918 408v4l1 4 2 1 1 3v2h-5l-1 1-4-2h-17l-3 1v-5h7l2-2 3 1 2 1 3-2-2-2-1 1h-2l-2-1h-2l-1 1-7 1-2-5-3-3 3-1 3-4 1-4 2-2 3 1 3-2h3l2 2 4 2 3 5 4 4z"
          name="Senegal"/>
    <path d="m929 448-3 3-3 3v2l-1 2h-2l-4-3-3-3-1-3v-4l3-3v-2l1-1h2l1-2h5l1 3 1 2v2l1 2v2h2z" name="Sierra Leone"/>
    <path d="m493 416-1 1h-5l-3-2h-3l-1-1v-1l2-2 1-1h0l1-1 2 1 1 1 2 1v1l2-1 2 1h0v3z" name="El Salvador"/>
    <path d="m1102 218-1 2 1 2 2 3-1 2-1 2h1l-1 1-2 1h-2l-1-1h1v-2h0l-1-1h-1l-1-1-1-1-1-1-1 1v2h-1 0l-2-2h-2l-1-1-1-1 1-1v-2l-2-3 1-3h-2l2-2-2-2-2-2 4-2h3l3 3 1 2 3 1 1 3 3 2 2-2 1 1-1 1 1 1z"
          name="Serbia"/>
    <path d="m681 465-3 5v5l2 4-1 2v3l-2 3-3-1h-5l-1 2 1 1v1h-3l-4-6v-4h-2l-2-4 1-4-1-1 4-2 1-6 7 2v-1l5-1 6 2z"
          name="Suriname"/>
    <path d="m1098 188-1 1-1 3h-1l-5-1h-2l-1 1-2 1h-1l-2 1h-2v1l-4 1-2-1-3-1-1-2 1-1v-2h4v-1h1v-1l1-1 1-1h1l1 1 2-1 2 2 3-1h3l3-1 5 3z"
          name="Slovakia"/>
    <path d="m1070 204-4 2v2l-2 1v1h-2l-2-1-1 1h-3 1l-2-3 1-3h4l2-1h5l1-1h1l1 2z" name="Slovenia"/>
    <path d="m1088 87-7 2-3 3 1 4-6 5-8 5-2 8 4 4 4 3-3 7-4 1-1 10-2 6-6-1-2 5h-6l-1-6-5-6-4-9 2-3 3-4 1-7-3-3-1-8 2-5h4l2-2-2-2 6-8 3-6 2-4h4l1-3 8 1v-4h2l6 3 8 3 1 9 2 2z"
          name="Sweden"/>
    <path d="M1162 668v3l1 3-2 2-3 1-3-3v-3l2-2v-2h2l3 1z" name="Swaziland"/>
    <path d="m1195 288-10 6-6-2h0l1-1-1-3 1-3 3-3-1-2-3-1-1-5 1-2 1-2 1-1v-3l2 1 6-2 3 1h4l6-2h3l6-1-2 4-3 1 1 5-1 8-11 7z"
          name="Syria"/>
    <path d="m1119 376 1 26-5-1-2 5-1 4 1 1-2 2 1 3-2 3v2h2l1 2v4l2 2v1l-3 1-3 3-4 7-5 3h-7v2l-3 3-2 2-7 3-2-2h-1l-1 2h-4l1-2-2-4-1-3-2-1-4-3 1-3h8l-4-6 1-4-1-5-2-4v-3h-3v-4l-3-2 3-9 7-6v-8l2-13 1-3-3-2v-2l-2-2-1-10 5-3 23 12 22 12z"
          name="Chad"/>
    <path d="M991 431v4l1 1 2 3 1 3 1 1v15l1 4-5 2-1-3-1-4-1-3 1-6-1-2-1-5v-5l-2-3 1-2h4z" name="Togo"/>
    <path d="m1578 410-6-1-7 2-3 5 2 8-5-3h-5v-5h-5l1 7-3 9-1 6 1 4 3 1 3 6 1 5 4 4h3l3 4-1 2-4 1-1-3-4-3-1 1-3-2-1-3-3-4-3-3-1 4-1-4v-4l2-6 2-7 2-6-2-5v-3l-1-4-5-5-2-3 2-2 2-5-3-4-4-5-4-6 2-1 2-7h4l3-3 3-1 2 2 1 4h4v7l1 5 5-3 2 1 3-1 1-2 4 1 5 5 1 6 6 6v5l-1 3z"
          name="Thailand"/>
    <path d="m1357 244-1 1h-6v3h6l7 2 9-1 3 6 2-1 4 2v2l2 4h-5l-4-1-3 3-2 1-1 1-3-2-1-6h-2v-2l-3-1-2 2 1 3-1 1-3-1-1 3-2-1-4 2-1-1 1-6-3-5-4-1 1-3h4l2-3v-5l7-1v3l1 2h2z"
          name="Tajikistan"/>
    <path d="M1338 262h-1l-3-2-1 2-4 2v5l-2 2-4 1v3h-4l-6-2-2-5-4-1-7-5-5-1-6-3-4-1-2 1h-4l-3 4-4 1-2-5-1-6-4-2v-5h-3v-6l5 2 4-2-5-4-2-3-4 1 1 5-3-4 2-2 5-2 4 2 5 5h9l-2-4 4-2 3-3 8 3 2 5 2 1h6l2 1 4 7 7 4 4 3 7 3 7 3 1 4z"
          name="Turkmenistan"/>
    <path d="M1693 562v-2l-1-1 1-2 5-1h4l2-1 2 1-2 2-6 2-5 2z" name="Timor-Leste"/>
    <path d="M1048 289v5l-2 2-2 2-4 2 1 3v3l-3 1-3-11-3-3v-1l-5-4v-5l3-4 1-5-1-6 1-3 6-3 3 1v3l5-2v1l-2 3v3l2 2-1 5-3 3 1 4h3l1 3 2 1z"
          name="Tunisia"/>
    <path d="M1202 235h5l6 3 1 2v4l4 1 3 2-3 2 2 7v2l4 5-3 1-2-1-6-1-2 1-6 1h-3l-6 2h-4l-3-1-6 2-2-1v3l-1 1-1 2-2-3 1-2h-3l-4-1-4 3-8 1-4-3-6-1-1 3-4 1-5-4-6 1-4-7-4-3 2-5-3-3 5-7h8l1-5 10 1 6-4 6-2h8l10 5 8 2 6-1 4 1 6-4ZM1122 240l1-1 1-4-2-1 5-2h4l1 3 5 2-1 1-6 1-2 2-4 3-2-3v-1Z"
          class="Turkey"/>
    <path d="m1658 356-1 5-4-6-2-4 2-7 3-5 3 2v4l-1 10z" name="Taiwan"/>
    <path d="M1167 508v4l-1 5 1 2 3-1 3-1 1 1 3-1-2-3 2-3 3-2 20 13v3l8 7-2 8v3l3 3 1 1-2 4v5l2 4 2 7 2 1-5 4-6 2h-3l-3 2h-3l-2 1-7-2h-2 0l-2-2v-7l-3-3v1l-1-2-6-1-3-2-3-1-3-1h0l-3-7v-4l-5-4 2-3-1-2v-3l-1-1v-3h1l2-2 2-3 2-2v-2l-2-1v-3h2v-4l-2-4 2-1h6z"
          name="Tanzania"/>
    <path d="m1179 475 3 4v3l3 8-2 4-3 4-1 3h0-1l-3-1-2 1-4 1-2 4v2h-6l-2 1-4 2-1-1v-4l1-3 1-5 1-3 2-3 2-2 2-2-2-1v-8l2-2 4 2 4-2h4l4-3z"
          name="Uganda"/>
    <path d="m1157 175 3 2v1l6 3 4-1 3 3 3-1 8 2v2l-1 4 2 3v2l-5 1-2 1v3l-4 1-3 2h-4l-4 2 1 4 2 2 6-1-1 3-5 1-7 3-3-1 1-3-6-2 1-1 4-2-1-1-9-2v-2h-5l-1 4-3 4-3-1-2 1-3-1h2v-3l1-2v-1h1v1h3l2-1h-1v-1l-2-2-1-2-2-1v-2l-3-2h-2l-4-2h-3l-1 1h-2l-1 2h-4l-1 1-3-1h-3l-3-1-2 1-1-1-3-2 1-3 1-1h1l-1-3 3-5 3-1v-1l-3-6h2l3-2h3l5 1 6 1h4l2 1 1-1 2 2 4-1 2 1v-3l1-2h6l1-1h7l3 3v3l4 1z"
          name="Ukraine"/>
    <path d="m700 719-2 4-5 3-4-1-3 1-6-3h-3l-4-3-1-5 1-1-1-6v-7l1-5 3-1 7 5h1l7 4 5 4 3 4-1 3 2 4z" name="Uruguay"/>
    <path d="M1353 231h1l-3 4 5 3 3-2 7 4-5 4h-6l-1-2v-3l-7 2v4l-2 3h-4l-1 3 5 1 2 5-1 6-5-1h-3v-4l-8-3-6-3-5-3-7-4-4-7-2-1h-6l-2-1-2-5-8-3-3 3-4 3 2 3h-6l-6-24 12-3h1l9 5 5 2 6 6 6-1 9-1 7 5 2 6h2l3 6h7l2 3h2l1-5 5-4 3-1z"
          name="Uzbekistan"/>
    <path d="m649 448-5 4v2l1 3-1 1-4 1v3l-1 2 3 4 1 2-2 3-6 2-4 1-2 2-5-2-4-1-1 1 3 1-1 5 1 4h5v2l-4 2-1 2-2 1-4 2-1 2h-5l-3-3-1-7-2-2-2-1 3-3v-2l-2-2-1-4 1-5 1-2 1-3-2-1h-7l-2 1-4-6-3-1-8 1-1-2-1-1v-6l-1-2-1-2-3-1 2-4 1-4 2-3 2-1 2-4 3-1v2l-3 1 1 2v4l-3 4 2 5 3-1 1-4-1-3v-5l7-2-1-3 2-2 2 4h4l3 4 1 2h11l3 2 4 1 3-2v-1l8-1h6l-5 2 2 3h5l4 4 1 5h3l2 1z"
          name="Venezuela"/>
    <path d="m1587 364-7 5-4 6v5l5 6 7 9 5 4 4 5 4 12 1 11-5 4-6 4-4 6-6 6-3-5 1-4-4-4 5-2 6-1-3-3 9-5v-8l-2-4v-7l-2-4-5-5-4-5-6-8-7-4 1-2 3-2-3-6h-7l-3-5-4-5 3-2h4l5-1 4-3 4 2 5 1v4l3 3 6 1z"
          name="Vietnam"/>
    <path d="m1284 395-4 2-1 2v3l-6 2-8 3-5 5h-4l-3 3-4 1h-6l-1 2-2 1v1h-3l-2 1h-4l-2-4v-4l-1-2-1-4-2-3h1v-7l2-2v-3l1-3 2 2 2-1h7l6 1h2l1 2 3-1 3-7 5-3 16-2 6 10 2 5z"
          name="Yemen"/>
    <path d="M1162 557h0l3 1 3 1 3 2 3 3 1 5-1 2-1 5 1 6-2 2-2 6 3 2-17 5v4l-4 1-3 3-1 2-2 1-5 5-3 4h-2l-2-1h-6l-1-1h0l-3-2h-3l-5 1-3-4-4-5 1-20h12l-1-2 1-3-1-3 1-3-1-2h2v2h3l4 1 2 3h4l3-2 2 4 4 1 2 2 2 4h4v-7l-1 1-4-2-2-1 1-7 1-7-1-3 2-4 1-1 8-1h1v1l1 1 2 1h1l-1-1z"
          name="Zambia"/>
    <path d="m1159 645-2-1-2 1-3-1h-2l-4-3-4-1-2-4 1-3h-3l-6-7-1-4-2-1-1-5h6l2 1h1l4-4 5-5 2-1 1-2 3-3 4-1v3h5l3 1 1 2h2l3 2v8l-1 5-1 4 1 2-1 4-1 1-1 4-7 8z"
          name="Zimbabwe"/>
    <path d="m1222 513-3-6v-23l4-7 2-2h4l5-5h7l15-20h-4l-19-7-2-2-2-4-3-3 2-2 1-4 2 1 2 3 2 3h3l5-2 6-1 5-2h3l2-1h3l2-1 3-1h3l2-2h2v9l-1 2-1 7-3 7-3 8-5 10-4 7-7 8-5 6-9 6-5 5-6 8-2 3-1 2z"
          name="Somalia"/>
    <path d="M1098 231h-1l-3 1v1h-1l-1-2-1-1-1-1 1-2h1v-2l1-1 1 1 1 1 1 1h1l1 1h0v2h-1l1 1z" name="Kosovo"/>
    <path d="m1159 645 3 9 1 4-2 7 1 3-3-1h-2v2l-2 2v2l3 4 3-1 2-3 4 1-2 4-1 6-2 2-4 4-1 1-2 3-2 3-4 5-6 6-4 4-5 3-6 3h-2l-1 2-3-1-3 1-6-1-3 1-2-1-6 3-5 1-3 2h-3l-2-2h-2l-2-3v1l-1-2 1-4-2-4 2-1v-5l-3-6-3-5h0l-3-9 3-3 2 2v3h3l3 1h3l5-4 1-23 2 1 3 6-1 4 1 2 4-1 3-3 3-1 1-4 3-1 2 1 3 2h4l4-2v-2l2-3h3l1-3 2-4 6-5 8-4h2l3 1 1-1 3 1zm-20 53 1-2 3-1 1-2 2-3-1-2-3-2-2 1-3 3-4 4 4 5 2-1z"
          name="South Africa"/>
    <path d="m1886 764-1 3 6-3v3l-3 3-4 3-7 4-5 3v3h-4l-6 3-5 4-8 6-7 3-4 2h-4l-2-3h-5l1-2 7-5 11-6 4-1 6-3 7-3 6-3 6-5 3-2 3-3 6-3-1 2ZM1915 734v7l3-5 1 2-2 5 3 2 3 1 4-3 3 1-6 6-4 3h-4l-2 2-2 3-2 1-4 3-6 5-6 2v-1l-1-1 7-5 1-4-4-3 2-2 5-2 4-5 3-4v-4l1-2-1-2v-10l2-1 1 4 3 1-2 6Z"
          class="New Zealand"/>
    <path d="m655 838 6 14h8v2l-4 2h-2l-3-1-4-1-6-1-7-4-7-3-9-7 4 1 9 5 7 2 1-3v-4l3-3 4 1Z" class="Chile"/>
    <path d="m614 648 1 1-1 7-5 3 1 11-1 2 2 3-3 4-3 6v5l1 7-2 6 5 11 2 2 1 5-2 7 2 5-3 4 1 6 4 6-3 3v5l1 7 4 8-2 1 4 7 3 3-1 2 3 2 1 2-2 1 2 4 1 8-1 6 2 3v4l-3 2 4 7 2 2h3l2 4 4 4 12 1 5 1h-5l-1 1-4 3 2 5h-2l-6-2-8-4-7-3-4-4v-4l-4-4-5-11v-6l3-4-8-2 3-6-2-10 6 2-2-13-4-2 1 8-3-1-2-9-2-12 1-4-3-6-2-8h2v-10l2-10v-10l-4-10 1-5-2-8 2-8-1-12v-28l-2-10-2-9 3-2 1-3 3 4 2 5 3 2-1 7 3 7 4 9 3-1Z"
          class="Chile"/>
    <path d="m1017 177-3-1-3-3-5 1h-3l2-2 4-9 7-3 4 1v2l-1 5-1 3h-3l1 6z" name="Netherlands"/>
    <path d="m947 264-2 1-3-1-3 1 1-5v-4h-3l-1-3 1-4 2-2 1-3 1-4v-2l-1-3v-2l2-1 2-1 1 3h3l1-1h3l1 3-2 2v5l-1 1-1 3-2 1 2 3-1 5 1 1v2l-2 2v3z"
          name="Portugal"/>
    <path d="m1690 177 13 11-9-2 4 9 10 7 3 4-7-4v5l-4-5-4-6-6-7-2-5-7-8-8-6-6-8 1-3-4-3 1-1 5 4 7 6 5 6 8 6ZM1095 155l-9 1-6-1 1-3 6-2 5 1 2 1v2l1 1ZM1548 48h-14l-1-1v-2h5l8 2 2 1ZM1561 39l-1 2-7-1-10-2-2-1h8l12 2ZM1536 36l3 4h-15l-4 1-13-3-3-4h14l18 2ZM1219 61l-2 1-14-1-2-2-8-2-2-3 3-1-1-2 5-5h-4l7-5-3-2 7-3 11-3 11-1 5-2h7l4 2-1 1-12 3-9 2-9 5-3 5-3 5 3 4 10 4Z"
          class="Russian Federation"/>
    <path d="m1662 231-2-1-2-3h3l-4-8-5-5 3-3 7 2v-7l-3-6v-3l-1-5-7 1-3 3h-7l-6-6-9-4-10-2-7-6-4-4-4-3-8-6-6-2-8-2h-6l-5 1-2 3 4 2 2 3-1 2v6l2 3-5 4-7-2h-6l-3-2h-4l-4 4-6 1-4 2-7-1h-4l-5-4-7-3h-11l-4 2-8-3-4-5-7-1-4-1-7-3-2 7 4 3-2 5-8-2h-5l-5-3h-5l-5-2-6 3-7 5-5 1-1 1-5-4-6 1-3-3-4-1-4-3-3-2-7 2-8-3-1 3-18-16-9-5 1-2-9 6-5 1-1-4-7-2-4 2-5-7-9-1-3 3-11 2-1 1-17 2-2 3 5 4-4 1 2 2-4 3 10 4v3h-7l-1 2-8-3h-7l-5 2-6-2-12-5-8 1-8 6 1 5-6-4-3 7 2 1-1 5 5 4h3l5 4v4l3 1-2 3-4 1-4 7 6 6 1 4 7 8-3 2v2l-3-1-4-3-1-1-4-1-2-3-5-1-3 1-1-1-8-3-8-1-4-1h-1l-7-5-6-2-6-4 4-1 3-5-3-3 7-2-1-2-4 1v-3l2-1 5-1v-2l-2-3 2-4-1-1-8-2h-2l-4-3-4 1-6-2v-2l-3-2-4-1v-3l-3-3h-7l-1 1h-2l-2-4-1-2h5l1-2-1-1-4-1v-1l-2-1-4-4 1-2-1-3-5-1h-2l-1-1-6-2-2-3-1-3-2-1 1-2-2-6 3-3-1-1 4-4-5-2 8-8 3-3 1-3-7-4 1-4-5-4 1-5-6-6 3-4-7-4-1-4h3l7-2 3-2 8 3 12 1 18 6 4 3 1 4-4 3-6 1-20-4-3 1 8 4 1 2 2 6 6 2 4 1v-3l-4-2 2-2 12 3 3-1-4-4 8-6 4 1 5 2 1-4-5-3 1-4-5-3 13 2 3 3h-5l1 3 5 2 6-1-1-3 8-3 12-5 3 1-2 3h5l2-1 8-1 5-2 7 3 2-3-6-3 2-2 13 2 6 1 19 6 1-2-6-3-1-1-5-1v-2l-5-5-1-1 4-5v-5l2-1 11 2 3 2-1 5 4 1 4 4 3 7 7 4 1 3-4 8 5 1 1-2 4-1-1-3 2-3-4-3-1-3-4-1-3-3-1-5-8-5 5-3-4-4h2l4 3 2 5 5 1-4-4 5-2h8l9 3-6-4-5-6 6-1h17l-6-3 2-3 4-1 5-2 9-1v-1h9l4 1 6-3h7l-2-2 1-2 6-2 9 2-4 1h10l4 3 2-1h10l12 2 6 2 2 3-2 1-7 3-1 1 6 1 7 1 2-1 6 4v-2h19l4 3 17 1-5-4 10 1 6-1 10 3 6 3v3l10 4 9 2-3-6 10 3 5-2 10 2 1-1h7l-9-5 2-2 40 4 8 3 16 4 15-1 10 1 6 2 5 4 8 1 3-1h7l10 1 7-1 14 5 2-2-8-3-2-2 15 1h8l16 2 10 3 33 22-2 2h-6l8 3 9 5 4 1 4 3 1 1-10-1-7 4-3 1-1 4-2 4 2 2-12-4-6 5-5-2-1 2-7-1 3 4 1 6 3 2 7 2 9 8-4 1 3 5 5 2-5 3 5 7-5 2 4 6-2 6-5-4-11-9-16-14-7-8 1-4-3-3 5-1v-7l1-6 2-5-6-8h-5l3 5-3 6-13-7-9 2v10l8 4-8 1-7 1-4-5h-8l-3 2-15-1-13 2-3 12-5 14 8 1 5 4 6 1 1-3h5l13 7 5 5 1 6 6 8 5 10-1 9 1 4-2 8-2 7-1 4-4 3h-3l-6-3-4 5 1 2ZM1367 23l-18 2-1-6 2-1 3 1 13 2 1 2ZM1165 13l-4 1h-3v1h-4l-4-1 1-1h-8l6-1h5l2 1 1-1h9l-1 1ZM1345 20l-7 1-12-1-8-2-6-3-6-1 5-3 6-1 10 2 14 4 4 4Z"
          class="Russian Federation"/>
    <path d="m977 223 2 3 9 3 2-2 6 3 6-1v4l-5 4-6 2-1 2-3 3-2 5 2 4-3 3-1 4-4 1-4 5h-12l-3 3-2 2-3-1-2-2-1-3-5-1-1-3 2-2 1-2-2-2 2-4-2-4h2l1-3v-1l1-5 2-2-1-3h-3l-1 1h-3l-1-3-3 1-1 1v-4l-2-3 7-5 7 1h7l5 2 4-1h9z"
          name="Spain"/>
    <path d="m1036 231-2 5-2-1-1-4v-3l4-2 1 5ZM1014 185l2 1 1-1 2 2 8 1-3 4v5l-2 1-2-1v2l-3 4v2l2-1 2 3v2l1 2-1 2 1 5 3 1-1 3-4 3-10-1-8 2v3l-6 1-6-3-2 2-9-3-2-3 2-3 1-13-5-7-3-3-8-2v-5l6-1 8 2-1-8 5 3 11-5 1-5 5-1v2h3l2 3 4 3 2-1 4 3Z"
          class="France"/>
    <path d="m119 379-1 1h-1v-5h0l1-1v-2h1l2 1 1 1h1l1 3h-1l-2 1-2 1ZM118 369l-2 1v-2h-1 0l1-1 2 1 1 1h-1ZM115 366v1l-3-1h3ZM110 365h0-2l-1-1v-1l2-1v1l1 2ZM102 361h-1l-1-1h0l1-1h1v2ZM540 195l-7 2-4 2-5 3v1l5-2 2 2 5-1 5-2 5-2-3 3 3 1 2 2 5-1 5-1 1 2h1l1 1 2 2-5 1h0l-4-1-4 1-4 1-4 4-3 2v1l5-4h1l-5 5-2 4-3 4-1 3v1l-1 2v4h2l2-1 1-1 4-3 1-4v-4l2-3 2-3 2-2 3-2v3l2-4h1l2-3 4 2 2 2v3l-2 3-4 2v2h1l4-3 2 1-1 4v2l-4 4-2 2-3 2 3 2h2l4-1 4-2h3l5-2 5-4 1-1v-2h10l5-2 1-2-1-1 7-4 3-2h17l1-1h2l2-1 3-3 3-5 6-5 1 2 4-1 1 1-3 9 3 4v2l-7 3-6 2-6 2-4 4-1 1-1 3 1 4h2v-2l1 1-1 2-4 1h-2l-5 1h-5l-5 2 8-1 1 1-8 2h-3v-1l-2 2h2l-3 5-5 5v-2h-1l-1-2v4l1 1-1 2-2 3-5 5h0l3-5-2-2 1-5-2 2v4l-3-1 3 2-2 7h2v2l-1 7-5 4-6 2-5 4h-2l-4 3-1 2-7 4-4 3-3 4-2 5v10l2 4-1 3 2 7-1 5-1 2-2 4-2 1-2-1-1-3-1-1-2-6-2-5v-2l2-4-1-4-3-5-2-1-6 3-1-1-2-3-3-1-7 1-4-1h-5l-2 1 1 2-1 3 1 1-2 1-1-1-3 1h-4l-3-4-5 1-3-1h-4l-5 2-6 4-6 3-4 3-2 3-1 5v3l1 2h-3l-3-1-4-2-1-3v-5l-3-4-1-3-1-5-3-2h-5l-5 5-4-2-2-2v-4l-1-3-3-3-2-2-1-2h-9l-1 3h-15l-11-5-7-3 1-1h-7l-7 1 1-3-2-4-3-1v-2h-2l-2-2h-4l-1-1v-4l-2-6-1-9 1-2-1-2-1-5 1-5-1-4 4-5 3-6 1-4 6-6 4-6 4-6 4-8 2-6v-3l2-1 5 2-1 6 3-1 2-6 2-5h137l1-2h2l-1 3 1 1 3 1 5 1 4 2 4-1 6 2ZM275 139l-7 2-1-2 3-2 6-3h6v2l-7 3ZM236 122l-4 1-2-1v-2l5-1 3 1-2 2ZM237 100l1 1 4-1 2 2h3l-1 1-5 1-2-1v-1h-5 0l3-2Z"
          class="United States"/>
    <path d="m410 67-25 20-35 33h4l3 2v2l1 4 7-3 7-2-1 3 1 2 2 3-2 4-1 7 5 4-4 4-5 3v-3l-3-2 4-5-2-5 3-5-4-1h-8l-3-2-4-6-3-1-6-2-6 1-6-3-3-3-6 2-4 4h-3l-6 1-7 2-6 2 3-4 9-6 6-2 1-1-10 3-7 4-11 4v3l-9 4-8 3-6 2-4 2-11 4-4 2-9 3h-2l-7 1-7 2-6 2-10 2 1-1 8-3 7-2 8-3 7-1 5-2 10-4 2-1 6-2 6-5 6-3-7 2-1-1-4 2v-3l-4 2 2-3-7 2h-3l4-3 3-2-1-2-7 1v-3l-2-1 4-4v-2l6-4 8-3 5-3h4l2 1 7-3h2l6-1 2-3-1-1 6-2h-2l-7 1-3 1-1-1-7 1-5-2 1-2-1-3 10-2 13-3h3l-4 3 9-1 1-3-2-2 1-3-1-2-3-2 6-3h8l9-2 4-3 8-3h5l11-3 3 1 11-3 4 1v2l3-1 6 1-2 1 5 1 5-1 6 2 8 1h2l6-1 5 2 3 1Z"
          class="United States"/>
    <path d="m677 487 2-3v-3l1-2-2-4v-5l3-5 2 1 4 1 6 6 1 2-4 6-2 5-2 2-2 1-1-2h-2l-1 1-3-1z" name="French Guiana"/>
    <path d="M593 422h-1v-1h1v1h0z" name="Aruba"/>
    <path d="M634 385h0v-1l1 1h-1 0z" name="Anguilla"/>
    <path d="m28 593-1 1h0v-1h1ZM34 593h0Z" class="American Samoa"/>
    <path d="M641 392h0v1h0-1 0v-1h1ZM641 388h0v1h0v-1h0Z" class="Antigua and Barbuda"/>
    <path d="M1264 333h1v1h0v2h0l-1-1h0v-2h0z" name="Bahrain"/>
    <path d="M580 366v1h0-1 0-1v1l-1-1h0v-1h3v-1h1l-1 1ZM581 364h-1l1-1v1h0ZM581 358h2v1h0l-1-1h0-1 0ZM577 356h0v2h-1 0v1h-1 0l1-1h1v-1h0-1 0v-1h1ZM575 356h1-1 0l-1-1h1v1ZM566 350l1 1h0l-1-1h0ZM570 350h0v1h0v1h1v1h0v1h1v1l-1-1h0-1l1-1h-1 0l1-1h-1 0v-1h0v-1 1-1ZM573 350h-1 1ZM564 348h0v-1h0v1ZM575 347v1h-1 0v-1h1ZM556 346h0v1h0v-1h0ZM557 347h0v-1h1v1h0v1h0v1h-1v1-1h0-1 1-1 0v-1h0v-1h0v-1h1v1h0ZM570 346v1h0-1 0l1-1h0-1v-1h0v-1h0-1v-1l1 1h0v1h0l1 1h0ZM560 341h0-1 1ZM556 340h0v1h0v1h1v1h0v2h0-1v1h0-1 0v-1h0-1v-1h-1 0l1-1v1h1l-1-1h0l1-1h0v-1h0v-1h1ZM564 338h0l1 1h1v1h1v1h-1v1h0v1h0v1-1h-1v-1l1 1v-1h0v-1h0v-1l-1-1h0-1v-1l-1 1 1-1h0ZM555 330h1v1-1h2v1h0-2 0-1l-1 1h0-1v-1h1l1-1h-1 1ZM559 329h2l1 1v1h0l1 1h0v1h-1 0v2h-1v1-1h0-1l1-1h0l1-1h0v-1h0v-1h0-1 0v-1h0v-1h-1 0-1 0Z"
          class="Bahamas"/>
    <path d="M635 387h0z" name="Saint-Barthélemy"/>
    <path d="M637 294h0v1-1h0z" name="Bermuda"/>
    <path d="M652 418h-1v-1h0v-1h0v1h1v1h0z" name="Barbados"/>
    <path d="M1233 581h-1 1ZM1237 579v2h0-1 0v-1h-1 2v-1h0ZM1231 578h0-1 0v-1h0v-2h1v2h0v1h0Z" class="Comoros"/>
    <path d="M848 407h0-1v-1h1v1ZM850 407h0-1v-1h0v-1h1v1h0v1ZM853 404h1v1h1v1h0-1 0-1 0v-1h0v-1h0ZM856 404h1v1h-1v-1h0ZM858 398h1v1h0-1 0v-1h0ZM850 395h2v1h-1v-1h-1v1-1h0ZM858 395h0v-1h0v1ZM847 393v1h0-1 0v-1h1ZM846 391v1h1-1v1h-1 0v-1h0l1-1h0Z"
          class="Cape Verde"/>
    <path d="M599 425h0l-1-1h0l-1-1h0v-1 1h1l1 1h0z" name="Curaçao"/>
    <path d="M533 378h1-1 0ZM541 375l-1 1v-1h1ZM541 375h1-1Z" class="Cayman Islands"/>
    <path d="M1168 277h1-1 0-1 1ZM1167 277h0l-1 1h0v1h-1 0-1 0-1v1-1h0-1 0-1 0-1 0v-1h-1v-1h1v-1h1l1 1h0l1-1h2v1h2Z"
          class="Cyprus"/>
    <path d="M642 402h1v2h0-1 0v-1l-1-1h1z" name="Dominica"/>
    <path d="M697 836h1v1l-1-1h1-1ZM697 835h0v1h0v-1h0ZM703 834h0v1-1h0ZM691 833h0v1h0-1v-1h1ZM694 832h-1v-1h-1 0-1v-1h1l1 1h1v-1h1v1h0l1-1v1h1v-1h1v1h-1 1l-1 1h0l-1 1h0v1h-1 0-1 0v1h0-1 0-1 0-1 0v-1h1-1 2v-1h1v-1h-1 0v1h-1v-1h2ZM695 830h1-1 0ZM694 830h0ZM693 830h1-1 0ZM700 830h2v1h0v-1h-1v1h2v1-1h-1v-1h2l1 1h0-2 1l1 1h0l-1 1h-1 1-2 0-1 0-1 1v1h1v1h0v-1h-1v1-1h-1 0-1 1v1h1-1 0-1 0v1h0l-1-1h0-1l1-1h0-1v-1h1l1-1h1v1h0l-1-1h1-1v-1h0-1l1-1h1-1 1ZM695 829h1v1-1 1h1-1 0-1v-1h0ZM688 828h0Z"
          class="Falkland Islands"/>
    <path d="M956 112h0v1h1-1 0v-1h-1 1ZM956 110l1 1h0-1 0v-1h0ZM955 109h0v1h0-1 0v-1h-1 2-1l1-1h0v1h1l1 1h-1 0l-1-1h0ZM958 108h0Z"
          class="Faeroe Islands"/>
    <path d="M956 109h0l-1-1h2l-1 1h1-1ZM958 108v1h0-1v-1h1ZM957 108h0Z" class="Faeroe Islands"/>
    <path d="M1909 468h0v-1 1ZM1881 457h1v1h0-1 0v-1h0ZM1767 441h0-1 0v-1h1v1Z" class="Federated States of Micronesia"/>
    <path d="M639 425h0v-1h0v-1h0v1h0v1z" name="Grenada"/>
    <path d="M1801 416h0v1h-1 0v-1h0l1-1h0v-1h0v2z" name="Guam"/>
    <path d="M636 392h0v-1h0v1h0ZM636 391h0-1 0v-1h1v1Z" class="Saint Kitts and Nevis"/>
    <path d="M644 414h0l-1-1h0v-1l1-1v1h0v1h0v1z" name="Saint Lucia"/>
    <path d="M634 386h0v-1 1z" name="Saint-Martin"/>
    <path d="M1403 475h0z" name="Maldives"/>
    <path d="M1954 456h1-1z" name="Marshall Islands"/>
    <path d="M1064 272h0-1 0v-1h1v1ZM1062 271h0v-1h0l1 1h-1Z" class="Malta"/>
    <path d="M1803 411h-1 1ZM1804 406h0v-1h0v1h0ZM1805 404l-1 1h0v-1h1-1 1ZM1803 397h-1 1ZM1801 386h0v-1h0v1ZM1800 382h-1v-1h1v1Z"
          class="Northern Mariana Islands"/>
    <path d="M638 394h0v1h0v-1h0z" name="Montserrat"/>
    <path d="M1308 631v1h0v1h0-1v1h-1v-1 1l-1-1h1v-1h0v-1h1v-1h1v1ZM1340 629l-1-1h1v1Z" class="Mauritius"/>
    <path d="M1915 647h0-1 1ZM1920 639h0v1h0v-1 1h0v1h0-1 0v-1h0v-1h1ZM1917 635h0v1h0v1h0v1h0-1v-1h0-1v-1h1v-1h0-1 2ZM1914 633l-1 1h0v1h0v-1h0l1-1ZM1914 633h-1 1ZM1900 631h0v1h2v1h1v1h1v1h1v1h1v1h0v1h1v1h1l1 1h0l1 1h0l1 1h0v1h1l1 1h0v1h0l-1 1v-1h0l-1 1v-1h-1 0l-1-1h0-1v-1h0-1v-1h0v-1l-1 1-1-1h0l-1-1h0v-1h-1 0v-2h-1 0v-1h-1 0v-1h0l-1-1h0v-1h0v-1h0-1 0l1-1h-1 1ZM1901 631h-1 1ZM1898 629h0v-1 1Z"
          class="New Caledonia"/>
    <path d="M1933 505h0z" name="Nauru"/>
    <path d="M1748 453v1h0-1 0v1-1h0v-1h1z" name="Palau"/>
    <path d="M607 386h0ZM622 385h0l-1 1h-1 0l1-1h1ZM612 383h7v1h1v1h0-1v1h0-1 0l-1 1h0-1v-1l-1 1v-1l-1 1-1-1v1h-1 0v-1l-1 1h0v-2h0v-1h0v-1h1Z"
          class="Puerto Rico"/>
    <path d="M195 679h0ZM206 641h0-1 1ZM199 617v-1h0l1-1h0v1h0l-1 1ZM152 616h1v1l-1-1h0-1 0-1v-1h0v-1h1v1h1v1ZM149 614v1l-1-1h1ZM141 610h0v-1 1ZM139 610h0-1 0v-1l1 1h0ZM138 608h0v1h0v-1h0ZM166 605v1-1h0ZM204 570h0v-1h0v1ZM201 566h0v-1l1 1h-1 0ZM202 564v1h0-1 0v-1h1ZM196 562h0-1 1ZM198 559h0ZM194 558h1v1h0-1 0v-1h0Z"
          class="French Polynesia"/>
    <path d="M1927 576h0v1h0-1v-1h1ZM1889 576h1v1h1v1h0-1 0v-1h0-1 0l-1-1h0v-1l1 1ZM1925 574h0ZM1923 570h1l-1 1h0-1v1-1h-1 1v-1h1ZM1897 567h0l1 1h1v1h2v1h1v1h0-1 0-1 0-1 0v-1h-1 0v-1h0v-1h-1 0-1 1v-1h0ZM1901 564h0v1h0v-1h0ZM1898 562v2h1l-1 1v-1h0v-1h0v-1h0ZM1890 562h2v1h1v1h1v1h0l-1 1h0l-1-1h0-1 0-1 0-1 0l-1-1h0v-1h0v-1h0v-1h1v1h1ZM1892 560v1h0v-1ZM1892 560h0-1 1ZM1885 560h1-1 0ZM1877 558h0-1 1ZM1880 559v-1h0v1ZM1879 557h1-1 1v1h-1 0-1v-1h1v-1 1ZM1876 557h-1 0l1 1h-1 0v-1h0v-1h1v1ZM1889 556v1h0-1v-1h1-1 1ZM1895 556h0l1 1h0v1h0v1h1v1h0v1h0v1h0l1 1v1h-1v-1h0v-1h-1 0l-1-1h0v-1l-1-1v-1h0v-1h1l-1-1h0v-1h0l1 1v-1 1ZM1874 555h0ZM1874 554h1v1h0-1v-1Z"
          class="Solomon Islands"/>
    <path d="M1877 554v1h1v1h1l-1 1h0-1v-1h0v-1h0-1 0-1 0v-1h1v-1h1v1h0ZM1871 554h0v-1h1v1h-1ZM1875 554h0-1 0v-1h0v-1h1v2h0ZM1872 550v1h1v1h-1v1h0v-1h0l-1-1h0l1-1h0ZM1882 551h0v-1 1ZM1883 551v-1l1 1h0l1 1h1v1h2v1h1l1 1-1 1h1v1h-1v-1h-1v-1h0-1 0l-1-1h0l-1-1h-1 0v-1h-1 0v-1h0-1v-1l1 1ZM1882 550h0ZM1877 549h1l-1 1v-1h0ZM1881 549v1h0v-1ZM1879 550h-1 0v-1h1v1ZM1866 549h0ZM1868 547h0l-1 1v-1h1ZM1869 546v1-1h0ZM1872 545h2v1h1v1h0v1h1v1h1v1l-1-1h-1 0l-1-1-1-1v-1h-1l-1-1h0v-1h1v1Z"
          class="Solomon Islands"/>
    <path d="M1024 501h0v1h-1v-2h1v-1h0l1 1h0l-1 1h0ZM1029 492h-1 0v-1h1v1Z" class="São Tomé and Principe"/>
    <path d="M634 386h0z" name="Sint Maarten"/>
    <path d="M1249 562h0-1v1h-1v-1h2ZM1249 562h-1 1ZM1300 532h1-1 0v-1 1Z" class="Seychelles"/>
    <path d="M588 362h1-1 0ZM585 362h1-1 0ZM587 361h0Z" class="Turks and Caicos Islands"/>
    <path d="m15 640-1-1h1v1ZM12 637h0l1 1h0v-1 1h0-1v-1ZM11 629h0v-1 1h0ZM16 621l-1 1h0v-1h1ZM1 602h0Z" class="Tonga"/>
    <path d="M643 432v1h-1 0v1h0v1h0v1h0v1h0-1 0-1 0-1 0-1 0-1 1l1-1h1l-1-1h1v-1h0l-1-1h2v-1h2ZM645 429v1h0-1 0-1 1v-1h1Z"
          class="Trinidad and Tobago"/>
    <path d="M1999 557v-1h0v1z" name="Tuvalu"/>
    <path d="M642 417h0v-1h1l-1 1h0z" name="Saint Vincent and the Grenadines"/>
    <path d="M626 383v1h0-1 0v-1h1z" name="British Virgin Islands"/>
    <path d="M625 388h0-1 1ZM625 384h0ZM624 384h0-1 1Z" class="United States Virgin Islands"/>
    <path d="M1932 632h-1l1-1h0v1h0ZM1931 628h-1 0v-1h0v-1h1-1v1h1v1h0ZM1931 622h0v1h0v1h0l-1-1h0-1 0v-1h1v-1h0l1 1h0ZM1928 615v-1 1h1v1h-1 0-1 0v-1 1h-1l1-1h0v-1l1 1ZM1930 611v-1h0v1ZM1928 608v1h1v1h1-1 0-1 0v-1h0v-1h0ZM1929 608h0ZM1929 607h0-1 0l-1-1h1l1-1h0v1h1l-1 1ZM1925 605v1h1v1h0l1 1h-1 0-1 0-1 0v-2h0v-1 1l-1-1h1v-1h1-1l1 1h0ZM1924 603h0-1 0l1-1h0v1h0ZM1924 602h0ZM1929 605v-2h0v-1h1v-1 1h0v2h0l-1 1ZM1928 601h-1 0l1-1h1v1h-1 0ZM1930 601h0v-2h0v-1h0v2h0v1ZM1924 602h-2 0l-1-1 1-1v-1h-1v-1h0v-1h1v-1h0v1h1v2h0l1-1h0v1h0v1h1-1v1h1l-1 1h0ZM1928 593h0v1h0-1v-1h1ZM1928 591h0-1l1-1h0v1h0ZM1923 587v-1h1l-1 1Z"
          class="Vanuatu"/>
    <path d="M22 591h0l1 1h0-2 0-1 0v-1h-1 3ZM17 589h1v1h0-1l-1 1v-1h0l-1-1h0l1-1h1v1Z" class="Samoa"/>
    <path d="M602 425h0v-1h0l-1-1h1v1h0v1z" name="Netherlands"/>
    <path d="M634 390h0v-1 1z" name="St. Eustatius (Netherlands)"/>
    <path d="M633 389h0v-1 1h0z" name="Saba (Netherlands)"/>
    <path d="M644 407h0v1h1v1h0-1 0-1 0l1-1h-1 0v-1h0v-1h0l1 1h0z" name="Martinique"/>
    <path d="M888 323v1h0-1 0l1-1h0ZM902 321v1h0v1h0l-1 1h0-1v-1h0v-1h0v-1h2ZM892 322h0l-1-1h2l-1 1h0ZM898 318v1h0-1v1h0v1h-1v1h0-1 0v-1h-1 0v-1h2v-1h1v-1h1ZM908 321v1h0-1 0v-1h2v-1h0v-1h0l1-1h0v-1h0l1 1h0v1h0v1h0-1v1h-1 0-1ZM889 317h1l-1 1h0v1h0l-1-1v-1h1ZM913 315h0v1h-1 0l-1 1h0v-1h0v-1h2v-1h0v1Z"
          class="Canary Islands (Spain)"/>
    <path d="M1240 583h0l1 1h0l-1 1h1-1 0v-1h0v-1h0z" name="Mayotte"/>
    <path d="M1295 636h1v1h1v1h0l-1 1h0-1 0l-1-1h0l-1-1h0l1-1h1z" name="Reunion"/>
    <path d="M643 400h0v-1h0v1h0ZM641 397h1v1h0-1v1h0-1 0v-1h0v-1h1ZM643 397h1l-2 1h0v-1h0v-1h0v1h1Z"
          class="Guadeloupe"/>
    <path d="M1989 625h0ZM1982 623v1h0-1 0-1 0v1h0-1 0v-1h2v-1h1ZM1983 623h-1 1ZM1988 617l1 1h-1 0v-1h0ZM1986 616h0v-1h0v1h0ZM1984 613v1h0v1h1v1h0v1h0v1h0-1 0-1 0-1v1h-1 0-1 0-2v-1h0-1v-2h1v-1h1v-1h1l1-1 1 1h0v-1h2ZM1990 613v1-1h0ZM1979 611l-1 1h0v-1h1ZM1993 611h0l1-1h0v1h-1ZM1994 606h0l-1 2h0-1v1h0-1 2v-1h1v1h0l-1 1v-1h0-1v1h-2l1-1h-1 0-1v1h0l-1 1v-1h0-1v1h0v-1h-1 0v-1h1l1-1h1l1-1h2v-1h3-1Z"
          class="Fiji"/>
    <circle cx="997.9" cy="189.1"/>
    <circle cx="673.5" cy="724.1"/>
    <circle cx="1798.2" cy="719.3"/>
</svg>